<svg width="180" height="50" viewBox="0 0 213 59" fill="none" xmlns="http://www.w3.org/2000/svg">
<path d="M88.74 22.4H88.58C87.5551 20.7608 86.2602 19.3069 84.75 18.1C83.4133 17.0407 81.9401 16.1662 80.37 15.5C78.968 14.9052 77.5014 14.4756 76 14.22C74.721 14.0034 73.4271 13.8864 72.13 13.87C68.8944 13.8231 65.685 14.4568 62.71 15.73C60.0096 16.9003 57.5715 18.6005 55.54 20.73C53.585 22.7854 52.0347 25.1907 50.97 27.82C49.8842 30.4117 49.3136 33.1901 49.29 36C49.277 38.9783 49.8584 41.9292 51 44.68C52.0698 47.3327 53.6612 49.7437 55.68 51.77C57.7507 53.8233 60.199 55.4566 62.89 56.58C65.8152 57.7894 68.9548 58.3949 72.12 58.36C73.3642 58.3369 74.6046 58.2165 75.83 58C77.3345 57.7438 78.8043 57.3143 80.21 56.72C81.7857 56.057 83.2709 55.1968 84.63 54.16C86.195 52.9768 87.5476 51.5363 88.63 49.9H88.79V57.34H94.21V15H88.74V22.4ZM87.74 43.09C86.8703 45.1414 85.5986 46.9979 84 48.55C82.4378 50.0852 80.5987 51.3102 78.58 52.16C76.5222 53.0376 74.3071 53.4867 72.07 53.48C69.6463 53.5022 67.2425 53.0398 65 52.12C62.939 51.2734 61.0688 50.0221 59.5 48.44C57.9806 46.8795 56.7903 45.0296 56 43C55.1713 40.8642 54.754 38.5909 54.77 36.3C54.7128 33.8006 55.1689 31.3161 56.11 29C56.979 26.9187 58.2734 25.0419 59.91 23.49C61.5193 21.9868 63.3992 20.8025 65.45 20C67.5628 19.176 69.8123 18.7587 72.08 18.77C74.4044 18.746 76.7056 19.2343 78.82 20.2C80.8338 21.1216 82.6582 22.4102 84.2 24C85.7439 25.593 86.9572 27.4759 87.77 29.54C88.621 31.657 89.0556 33.9183 89.05 36.2C89.0675 38.565 88.6048 40.909 87.69 43.09H87.74ZM114.39 0H109V15H100.08V19.88H109V57.35H114.42V19.84H124.57V15H114.39V0ZM136.39 23.21C138.027 21.7482 139.933 20.6174 142 19.88C143.999 19.1479 146.111 18.7689 148.24 18.76C149.622 18.7615 150.998 18.9293 152.34 19.26C153.762 19.6031 155.132 20.138 156.41 20.85C159.288 22.4481 161.643 24.8443 163.19 27.75H169.19C168.26 25.3776 166.904 23.1951 165.19 21.31C163.642 19.6227 161.852 18.1736 159.88 17.01C158.031 15.9253 156.033 15.1168 153.95 14.61C152.036 14.1341 150.072 13.8857 148.1 13.87C145.052 13.8508 142.032 14.4601 139.23 15.66C136.535 16.7928 134.075 18.4209 131.98 20.46C129.909 22.4845 128.251 24.8926 127.1 27.55C125.936 30.2457 125.327 33.1485 125.31 36.0848C125.293 39.0211 125.867 41.9308 127 44.64C129.265 50.0493 133.579 54.3421 139 56.58C141.895 57.7839 145.004 58.3894 148.14 58.36C150.94 58.4136 153.726 57.9526 156.36 57C158.528 56.1888 160.554 55.0378 162.36 53.59C163.937 52.327 165.334 50.8532 166.51 49.21C167.491 47.8295 168.37 46.3789 169.14 44.87H163.14C162.633 45.8398 162.023 46.7518 161.32 47.59C159.41 49.9067 156.888 51.6393 154.04 52.59C150.88 53.6725 147.48 53.8472 144.225 53.0942C140.971 52.3412 137.993 50.6906 135.63 48.33C134.068 46.7376 132.832 44.8558 131.99 42.79C131.125 40.6327 130.699 38.3241 130.74 36C130.688 33.4433 131.233 30.9098 132.33 28.6C133.326 26.5574 134.708 24.7271 136.4 23.21H136.39ZM210.6 25.07C209.767 22.8168 208.457 20.7701 206.76 19.07C205.031 17.2577 202.91 15.8654 200.56 15C198.237 14.2235 195.8 13.8415 193.35 13.87C191.713 13.8461 190.081 14.0686 188.51 14.53C187.196 14.9206 185.933 15.4679 184.75 16.16C183.751 16.7393 182.839 17.4563 182.04 18.29C181.414 18.9388 180.842 19.6378 180.33 20.38H180.18V0H174.75V57.35H180.18V33.64C180.123 31.3264 180.503 29.0227 181.3 26.85C181.911 25.1796 182.876 23.6615 184.13 22.4C185.484 21.0368 187.158 20.0361 189 19.49C191.839 18.5163 194.921 18.5163 197.76 19.49C199.591 20.0407 201.255 21.0411 202.6 22.4C203.889 23.7027 204.876 25.2732 205.49 27C206.291 29.2446 206.67 31.6176 206.61 34V57.35H212V34C212.086 30.9634 211.615 27.9368 210.61 25.07H210.6ZM38.09 19.93C35.975 17.9986 33.5156 16.4822 30.84 15.46C28.0778 14.3944 25.1406 13.8551 22.18 13.87C19.1297 13.8488 16.1096 14.4759 13.32 15.71C10.6974 16.8721 8.32141 18.5251 6.32 20.58C6.02 20.88 5.74 21.2 5.47 21.52V0H0V36.19H5.12C5.11097 33.909 5.54219 31.6476 6.39 29.53C7.20471 27.4792 8.40274 25.6024 9.92 24C11.4541 22.3968 13.2845 21.1063 15.31 20.2C17.4384 19.2338 19.7527 18.7457 22.09 18.77C24.3544 18.76 26.6003 19.1772 28.71 20C30.7638 20.8024 32.647 21.9867 34.26 23.49C35.8935 25.0425 37.1844 26.9193 38.05 29C39.8656 33.4798 39.9227 38.4799 38.21 43C37.4181 45.0447 36.2169 46.9061 34.68 48.47C33.1112 50.0521 31.241 51.3035 29.18 52.15C26.9314 53.073 24.5205 53.5355 22.09 53.51C19.8527 53.5187 17.6372 53.0694 15.58 52.19C13.557 51.3428 11.714 50.1176 10.15 48.58C9.49936 47.9442 8.907 47.2515 8.38 46.51H14.51V41.31H0V55.83H4.47V49.68C5.1115 50.5229 5.81692 51.3153 6.58 52.05C8.6327 54.021 11.0379 55.5882 13.67 56.67C16.365 57.797 19.2588 58.3717 22.18 58.36C25.3547 58.3989 28.5055 57.8074 31.45 56.62C34.1355 55.5381 36.5794 53.9337 38.64 51.9C40.6386 49.906 42.2075 47.5237 43.25 44.9C44.3402 42.1683 44.8903 39.2511 44.87 36.31C44.9169 33.1139 44.297 29.9432 43.05 27C41.9108 24.3215 40.2209 21.9127 38.09 19.93V19.93Z" fill="#CCCCCC"/>
</svg>
