<svg width="358" height="99" viewBox="0 0 358 99" fill="none" xmlns="http://www.w3.org/2000/svg">
<path fill-rule="evenodd" clip-rule="evenodd" d="M43.0185 24.4716C42.6005 24.5026 42.4223 24.5728 42.185 24.7993C42.019 24.9581 41.7633 25.1101 41.6165 25.1373C41.47 25.1643 41.0575 25.2336 40.7 25.2911C39.0725 25.5526 38.7178 25.6333 38.2403 25.8511C37.9598 25.9788 37.2398 26.1816 36.6403 26.3016C35.7318 26.4833 35.5083 26.5656 35.3 26.7938C35.1625 26.9446 34.892 27.1428 34.699 27.2341C34.5058 27.3253 34.231 27.5086 34.0883 27.6408C33.9455 27.7733 33.5858 27.9598 33.2893 28.0551C32.5803 28.2828 32.272 28.4478 32.15 28.6641C32.0005 28.9293 31.9013 29.0166 31.3 29.4103C30.9975 29.6086 30.5623 29.9686 30.3328 30.2103C29.3298 31.2673 29.1328 31.4641 28.84 31.7001C28.6698 31.8376 28.4223 32.1526 28.29 32.4001C28.158 32.6476 27.913 32.9851 27.7453 33.1501C27.5778 33.3151 27.3768 33.5778 27.2985 33.7341C27.2205 33.8903 26.9925 34.1018 26.792 34.2041C26.4958 34.3553 26.4163 34.4611 26.3663 34.7701C26.213 35.7176 26.0843 36.1683 25.9003 36.4001C25.7913 36.5376 25.5635 36.9198 25.394 37.2493C25.2248 37.5788 24.9318 37.9901 24.743 38.1628C24.5318 38.3566 24.4 38.5708 24.4 38.7213C24.4 39.0163 23.8548 39.8693 23.6188 39.9438C23.526 39.9731 23 40.0423 22.45 40.0978C20.3843 40.3063 19.5023 40.5063 19.433 40.7823C19.3585 41.0791 19.0858 41.3688 18.836 41.4171C18.7358 41.4363 18.5403 41.6588 18.4018 41.9116C18.2633 42.1641 18.0545 42.4696 17.938 42.5903C16.8918 43.6738 16.8745 47.8216 17.9123 48.6958C18.013 48.7808 18.1525 49.0243 18.2228 49.2376C18.325 49.5486 18.4288 49.6558 18.75 49.7826C18.97 49.8693 19.195 49.9773 19.25 50.0223C19.305 50.0673 19.485 50.2156 19.65 50.3518C19.815 50.4883 19.9868 50.5998 20.0315 50.6001C20.2363 50.6003 21.2043 51.1133 21.4345 51.3438C21.5755 51.4848 21.7778 51.6001 21.884 51.6001C22.4135 51.6001 23.066 51.9216 23.2573 52.2768C23.4788 52.6878 23.5235 87.9211 23.304 88.9001C23.2073 89.3313 23.1258 89.8176 23.1083 90.0678C23.091 90.3166 22.8025 90.4643 22.2885 90.4876C21.6595 90.5163 21.6575 90.5176 21.7395 90.8436C21.8233 91.1773 22.2923 91.4093 23.0163 91.4748L23.6 91.5278V91.9523C23.6 92.4611 23.6795 92.4966 24.825 92.4988L25.6 92.5001V92.8941C25.6 93.3451 25.6408 93.3836 26.2235 93.4823C26.5825 93.5431 26.6548 93.5948 26.6798 93.8086C26.7328 94.2588 27.1975 94.4333 28.4733 94.4821L29.6 94.5253L29.6015 94.7876C29.6045 95.3021 29.999 95.4853 31.125 95.4958C31.593 95.5001 31.6 95.5048 31.6015 95.8251C31.6045 96.4446 31.607 96.4453 33.7213 96.5001L35.65 96.5501L35.6798 96.8063C35.7253 97.1956 36.1853 97.4111 37.105 97.4741C37.7658 97.5193 37.9055 97.5596 37.9558 97.7181C37.9888 97.8223 38.2035 98.0296 38.433 98.1788L38.85 98.4501H48C58.1835 98.4501 57.9533 98.4646 58.1835 97.8043C58.2748 97.5426 58.3155 97.5283 59.1588 97.4636C60.1375 97.3883 60.4 97.2461 60.4 96.7906V96.5121L62.3573 96.4811C64.0698 96.4538 64.3263 96.4291 64.4088 96.2813C64.653 95.8441 65.1203 95.4998 65.4828 95.4901C66.1803 95.4711 66.3425 95.3768 66.4363 94.9351L66.5223 94.5291L67.8698 94.4726C69.3828 94.4091 69.2735 94.4466 69.4493 93.9326C69.564 93.5973 69.6238 93.5463 69.9325 93.5196C70.3573 93.4826 70.4733 93.3596 70.5168 92.8996L70.55 92.5501L71.4823 92.5001C72.2325 92.4598 72.4338 92.4158 72.5123 92.2751C72.566 92.1788 72.656 92.1001 72.712 92.1001C72.8478 92.1001 73.1 91.8428 73.1 91.7048C73.1 91.5681 73.5868 91.3608 73.8335 91.3921C74.1175 91.4283 74.4038 91.1091 74.379 90.7843C74.3573 90.4991 74.0018 90.3503 73.9985 90.6251C73.9973 90.7186 73.9758 90.7166 73.9125 90.6166C73.8443 90.5093 73.816 90.5141 73.767 90.6416C73.7285 90.7418 73.7603 90.8001 73.8533 90.8001C74.0635 90.8001 74.0343 90.9306 73.7895 91.0833C73.6738 91.1556 73.609 91.1666 73.6455 91.1076C73.682 91.0483 73.653 90.9993 73.581 90.9986C73.501 90.9976 73.489 90.9683 73.55 90.9236C73.7455 90.7798 73.718 90.5001 73.5083 90.5001C72.6558 90.5001 72.6728 90.9063 72.6488 70.2001C72.624 48.7246 72.6408 50.4001 72.45 50.4001C72.3675 50.4001 72.3 50.3581 72.3 50.3068C72.3 50.2556 72.218 50.1876 72.1175 50.1556C72.0173 50.1238 71.871 49.9568 71.7925 49.7846C71.6758 49.5281 71.544 49.4391 71.0653 49.2936C70.6323 49.1618 70.371 49.0011 70.0573 48.6738C69.6915 48.2921 69.5623 48.2233 69.106 48.1693C68.8008 48.1333 68.3523 47.9793 68.0415 47.8041C67.5303 47.5156 67.434 47.4981 66.0273 47.4416C63.1585 47.3263 62.3275 46.6428 63.8713 45.6683C64.0978 45.5253 64.3123 45.3613 64.3475 45.3041C64.4298 45.1708 65.768 45.1673 65.85 45.3001C65.884 45.3551 65.9993 45.4001 66.106 45.4001C66.2128 45.4001 66.3 45.4396 66.3 45.4881C66.3 45.5366 66.8288 45.6068 67.475 45.6446C69.4618 45.7603 70.2275 45.9383 70.7225 46.3996C70.9363 46.5986 71.3358 46.7001 71.9065 46.7001C72.1165 46.7001 72.316 46.7451 72.35 46.8001C72.5208 47.0763 72.6 46.8136 72.6 45.9711C72.6 44.8443 72.8148 43.9378 73.1578 43.6181C73.2945 43.4903 73.5235 43.2091 73.6665 42.9931C73.8095 42.7768 73.9655 42.6001 74.0133 42.6001C74.061 42.6001 74.1 42.5483 74.1 42.4851C74.1 42.4218 74.2985 42.1826 74.541 41.9536C74.7835 41.7243 75.0473 41.3806 75.127 41.1896C75.207 40.9986 75.3503 40.7641 75.4455 40.6688C75.8955 40.2191 75.7745 36.3538 75.302 36.0828C75.1428 35.9913 74.914 35.7238 74.7938 35.4881C74.3453 34.6088 73.0333 33.5681 72.05 33.3116C71.4073 33.1438 70.053 32.9001 69.7638 32.9001C69.6173 32.9001 69.3968 32.8481 69.2738 32.7846C68.7955 32.5373 68.6958 32.5018 68.3028 32.4388C67.9123 32.3766 66.996 31.6573 66.3555 30.9103C65.9853 30.4786 65.3618 29.9001 65.2665 29.9001C65.2153 29.9001 65.078 29.7951 64.9618 29.6666C64.8453 29.5381 64.603 29.3321 64.4235 29.2086C64.244 29.0853 64.0323 28.8591 63.9533 28.7063C63.8143 28.4373 63.532 28.2773 62.9908 28.1603C62.848 28.1293 62.623 27.9993 62.4908 27.8713C62.1953 27.5856 61.5388 27.2001 61.3475 27.2001C61.27 27.2001 61.046 27.0396 60.8498 26.8433C60.6163 26.6096 60.3648 26.4666 60.1215 26.4293C59.9173 26.3981 59.705 26.3398 59.65 26.2998C59.595 26.2601 59.284 26.1973 58.9588 26.1608C58.4155 26.0998 57.6 25.7593 57.6 25.5936C57.6 25.5148 56.0883 25.2423 55.1 25.1426C54.3955 25.0716 54.175 24.9891 53.817 24.6626C53.5928 24.4578 45.2013 24.3093 43.0185 24.4716ZM63.741 33.3901C63.8358 33.4948 64.0565 33.6073 64.2315 33.6406C64.7235 33.7336 65.198 34.0706 65.3505 34.4358C65.4265 34.6178 65.6263 34.9143 65.7945 35.0941C66.7068 36.0706 65.8868 38.5248 64.4063 39.2491C64.2103 39.3448 63.9375 39.4813 63.8 39.5521C62.939 39.9958 60.8058 39.5058 60.6348 38.8251C60.6038 38.7013 60.5495 38.6001 60.5143 38.6001C60.3988 38.5998 59.934 38.1551 59.8158 37.9316C59.662 37.6416 59.666 35.6868 59.8213 35.1686C60.06 34.3713 60.8423 33.6936 61.6 33.6276C61.9575 33.5963 62.2725 33.5401 62.3 33.5026C62.3503 33.4341 63.113 33.2343 63.4095 33.2121C63.4973 33.2056 63.6465 33.2856 63.741 33.3901ZM36.9403 35.8246C37.5185 35.9438 38.4 36.5783 38.4 36.8753C38.4 36.9263 38.5725 37.1441 38.7833 37.3591C39.448 38.0376 39.8263 39.1986 39.5613 39.7476C39.481 39.9138 39.3018 40.3046 39.1633 40.6156C39.0248 40.9266 38.8623 41.2116 38.8018 41.2491C38.7413 41.2863 38.5815 41.4918 38.4465 41.7056C37.7705 42.7766 34.2453 42.8063 33.701 41.7458C33.618 41.5838 33.456 41.3611 33.3413 41.2508C32.5715 40.5108 32.3615 38.4633 32.967 37.6001C33.2918 37.1366 33.8518 36.6001 34.0103 36.6001C34.0598 36.6001 34.1 36.5336 34.1 36.4523C34.1 35.9228 35.702 35.5686 36.9403 35.8246ZM53.65 38.0988C54.6723 38.1903 55.258 38.3036 55.75 38.5046C55.86 38.5496 56.166 38.6151 56.4298 38.6501C56.8253 38.7026 57.0003 38.8001 57.425 39.2053C57.7085 39.4756 57.9775 39.7093 58.0228 39.7243C58.368 39.8393 58.5125 42.1466 58.2195 42.8671C57.9663 43.4898 57.3628 44.0928 56.7913 44.2941C56.5218 44.3891 56.1518 44.6028 55.9688 44.7693C55.7858 44.9358 55.3725 45.1633 55.05 45.2748C54.276 45.5426 54.2035 45.7708 54.2015 47.9511C54.1998 49.8936 54.1403 49.8156 55.7 49.9153C56.2775 49.9521 57.1193 50.0151 57.5705 50.0553C58.174 50.1088 58.4775 50.0923 58.718 49.9926C60.109 49.4166 61.5575 50.3836 60.6008 51.2493C60.4903 51.3493 60.4 51.4751 60.4 51.5288C60.4 52.0866 59.5633 52.2563 57.05 52.2083C51.9325 52.1106 51.223 52.1916 50.455 52.9596C49.976 53.4383 47.3473 54.1191 47.1583 53.8133C47.1198 53.7511 47.0203 53.7001 46.9373 53.7001C46.5368 53.7001 45.2895 53.0698 45.1478 52.7958C44.811 52.1446 45.434 51.8676 47.5 51.7501C48.9248 51.6691 49.0913 51.6261 49.4618 51.2446C49.7945 50.9021 50.2918 50.6001 50.523 50.6001C50.596 50.6001 50.7195 50.5118 50.7973 50.4038C50.8753 50.2958 51.0653 50.1796 51.2198 50.1458C51.3743 50.1118 51.64 49.9448 51.81 49.7746C52.153 49.4316 52.1395 49.6796 51.9448 47.3001C51.8525 46.1698 51.6435 45.9981 50 45.7023C48.0623 45.3538 47.3823 45.1396 46.8988 44.7258C46.6895 44.5466 46.4353 44.3991 46.334 44.3978C45.4945 44.3878 45.2848 41.3563 46.066 40.5268C46.13 40.4591 46.1975 40.3691 46.216 40.3268C46.2763 40.1903 47.0418 39.7346 47.331 39.6628C47.4858 39.6246 47.749 39.4373 47.9165 39.2466C48.0838 39.0561 48.3035 38.9001 48.4045 38.9001C48.5055 38.9001 48.6128 38.8603 48.6428 38.8118C48.6728 38.7631 48.9478 38.6921 49.2538 38.6538C49.5595 38.6158 50.0045 38.4983 50.2425 38.3931C50.4803 38.2878 51.0518 38.1623 51.5125 38.1143C51.973 38.0661 52.395 38.0208 52.45 38.0133C52.505 38.0061 53.045 38.0446 53.65 38.0988ZM41.4168 48.0616C42.0273 48.1778 42.206 48.5641 41.9975 49.3151C41.8698 49.7751 41.449 49.9276 39.0463 50.3851C38.581 50.4736 38.4 50.5673 38.4 50.7196C38.4 50.8706 37.95 51.2708 37.686 51.3546C37.5645 51.3931 37.3793 51.5048 37.274 51.6028C37.1688 51.7011 36.7853 51.9276 36.4223 52.1063C35.8285 52.3986 34.4103 53.6336 34.395 53.8716C34.3923 53.9148 34.192 54.2201 33.9503 54.5501C33.7083 54.8801 33.3983 55.3861 33.261 55.6746C33.1085 55.9948 32.911 56.2448 32.7533 56.3168C32.6078 56.3831 32.4703 56.5468 32.4383 56.6923C32.364 57.0283 32.099 57.6158 31.9595 57.7531C31.559 58.1483 30.6048 57.8126 30.593 57.2726C30.589 57.0953 30.5508 56.8601 30.5078 56.7501C30.4648 56.6401 30.4655 56.4826 30.509 56.4001C30.5525 56.3176 30.6638 55.9801 30.7558 55.6501C30.8718 55.2346 31.0235 54.9578 31.2485 54.7501C31.4303 54.5826 31.6075 54.2966 31.6498 54.1028C31.7355 53.7101 32.1315 53.0376 32.4318 52.7743C32.542 52.6776 32.6813 52.5026 32.7413 52.3851C32.801 52.2676 32.985 52.0976 33.15 52.0071C33.7143 51.6981 33.9 51.5518 33.9 51.4166C33.9 51.2123 34.2943 50.7001 34.4513 50.7001C34.527 50.7001 34.6478 50.5821 34.7195 50.4378C34.8835 50.1083 35.585 49.7121 36.139 49.6361C36.439 49.5948 36.5893 49.5166 36.656 49.3666C36.792 49.0603 37.3393 48.7268 37.8273 48.6526C38.0598 48.6173 38.43 48.5013 38.65 48.3948C39.4688 47.9988 40.4603 47.8796 41.4168 48.0616ZM66.2405 48.9501C66.443 49.0876 66.641 49.2001 66.6805 49.2001C66.7198 49.2001 66.8055 49.2861 66.8713 49.3911C66.9368 49.4961 67.1388 49.6141 67.3203 49.6533C67.831 49.7636 68.3435 50.0576 68.4848 50.3216C68.5553 50.4533 68.747 50.6118 68.911 50.6736C69.1155 50.7508 69.2623 50.9131 69.3795 51.1921C69.4733 51.4153 69.604 51.5986 69.67 51.5991C69.8255 51.6003 70.3 52.2226 70.3 52.4251C70.3 52.5108 70.4463 52.7591 70.625 52.9763C71.2088 53.6861 71.4 53.9423 71.4 54.0151C71.4 54.0543 71.4993 54.1181 71.6203 54.1566C72.035 54.2881 72.3 54.7346 72.3 55.3011C72.3 56.3421 70.0658 56.5826 69.8423 55.5653C69.753 55.1578 69.6218 54.9313 69.197 54.4501C69.0028 54.2301 68.7835 53.9038 68.7098 53.7251C68.636 53.5463 68.53 53.4001 68.4743 53.4001C68.3095 53.4001 67.9 52.9051 67.9 52.7061C67.9 52.6048 67.8213 52.4301 67.725 52.3176C67.559 52.1233 67.3415 51.9866 66.302 51.4238C66.0555 51.2903 65.694 51.0261 65.4988 50.8366C65.3035 50.6471 64.8978 50.3701 64.5975 50.2211C63.874 49.8623 63.7548 49.5596 64.1383 49.0568C64.5023 48.5793 65.6113 48.5231 66.2405 48.9501ZM41.9665 51.3996C42.3843 51.9353 42.184 53.0056 41.6085 53.3111C41.4208 53.4108 41.1698 53.5731 41.0508 53.6713C40.9318 53.7696 40.7478 53.9001 40.6423 53.9611C40.4178 54.0906 39.6138 55.0716 39.2545 55.6543C39.1175 55.8766 38.8693 56.1593 38.7028 56.2823C38.5088 56.4258 38.4 56.5943 38.4 56.7516C38.4 57.1738 38.0023 58.7026 37.7478 59.2581C37.3338 60.1621 36.3608 60.4696 35.977 59.8178C35.5013 59.0103 35.8395 56.6788 36.5018 56.2001C36.54 56.1726 36.628 55.9701 36.6978 55.7501C36.8753 55.1886 37.1755 54.7213 37.405 54.6486C37.5123 54.6146 37.6 54.5101 37.6 54.4166C37.6 54.3231 37.7125 54.0808 37.85 53.8786C37.9875 53.6763 38.1 53.4603 38.1 53.3986C38.1 53.2121 39.2328 52.1001 39.4228 52.1001C39.5203 52.1001 39.6 52.0623 39.6 52.0161C39.6 51.9403 39.8818 51.8341 40.6 51.6393C40.7375 51.6021 40.94 51.4711 41.05 51.3483C41.3935 50.9648 41.6383 50.9786 41.9665 51.3996Z" fill="white"/>
<path fill-rule="evenodd" clip-rule="evenodd" d="M39.9253 1.6706C39.7138 1.71135 39.657 1.8226 39.5778 2.3501C39.5508 2.5306 39.46 2.55285 38.6488 2.5776C38.1225 2.59385 37.6195 2.66635 37.435 2.7526C37.2615 2.83385 37.091 2.9001 37.0558 2.9001C36.9518 2.9001 36.637 3.23635 36.5725 3.41635C36.52 3.5631 36.2585 3.58685 34.3643 3.61635C32.0085 3.65335 31.7 3.74035 31.7 4.3676C31.7 4.57685 31.6545 4.6001 31.246 4.6001C30.673 4.6001 30.0513 4.9111 29.8513 5.2976C29.6988 5.5926 29.6963 5.5931 28.6743 5.6216L27.65 5.6501L27.6 6.1001L27.55 6.5501L26.75 6.60285C25.7853 6.6666 25.7178 6.7031 25.6375 7.20585L25.5745 7.6001H24.7443C23.7918 7.6001 23.6 7.71035 23.6 8.25735C23.6 8.59735 23.5963 8.6001 23.1468 8.6001C22.8098 8.6001 22.6768 8.64435 22.6275 8.77285C22.4475 9.24185 21.9203 9.6001 21.4105 9.6001C20.8175 9.6001 20.6 9.77485 20.6 10.2518C20.6 10.5833 20.5918 10.5896 20.125 10.6196L19.65 10.6501L19.62 11.1148L19.59 11.5793L18.798 11.6153C17.8578 11.6581 17.7013 11.7703 17.6238 12.4581C17.5438 13.1693 17.086 13.6001 16.4105 13.6001C15.766 13.6001 15.6 13.7653 15.6 14.4073C15.6 14.7498 15.5595 14.9001 15.4675 14.9001C15.3065 14.9001 14.9 15.3166 14.9 15.4816C14.9 15.5581 14.712 15.6001 14.37 15.6001C13.655 15.6001 13.6 15.6793 13.6 16.7101V17.5801L12.7083 17.6151C11.6183 17.6578 11.6578 17.6183 11.615 18.7083L11.58 19.6001H11.1458C10.2615 19.6001 9.60003 20.2871 9.60003 21.2058C9.60003 21.6566 9.57953 21.7001 9.36753 21.7001C9.05503 21.7001 8.73953 22.0668 8.65778 22.5251C8.62103 22.7313 8.53328 22.9001 8.46303 22.9001C8.30553 22.9001 7.90003 23.3191 7.90003 23.4816C7.90003 23.5468 7.83253 23.6001 7.75003 23.6001C7.62678 23.6001 7.60003 23.7778 7.60003 24.6001V25.6001H7.10003C6.71753 25.6001 6.60003 25.6361 6.60003 25.7533C6.60003 25.9178 5.96753 26.6001 5.81503 26.6001C5.65453 26.6001 5.60278 27.0168 5.60128 28.3196L5.60003 29.5891L5.12503 29.6196L4.65003 29.6501L4.60003 30.0966C4.55378 30.5083 4.52403 30.5481 4.21578 30.6108C3.66678 30.7221 3.65403 30.7668 3.60003 32.7298L3.55003 34.5501L3.20003 34.5806C2.74728 34.6204 2.60003 34.8261 2.60003 35.4191C2.60003 35.7518 2.55928 35.9001 2.46753 35.9001C2.31078 35.9001 1.90003 36.3148 1.90003 36.4731C1.90003 36.5338 1.84378 36.6021 1.77503 36.6251C1.67903 36.6568 1.64278 37.4688 1.61903 40.1216L1.58828 43.5763L1.19103 43.6399C0.589282 43.7361 0.600032 43.6193 0.600032 50.1376C0.600032 56.6089 0.572532 56.3181 1.20003 56.4751L1.55003 56.5626L1.60003 60.0063C1.65528 63.8101 1.68278 63.9684 2.32503 64.1934C2.57653 64.2814 2.60003 64.3334 2.60003 64.8001C2.60003 65.4206 2.92678 66.0533 3.31778 66.1906L3.58528 66.2846L3.61778 67.7679L3.65003 69.2511L4.08253 69.6506C4.32053 69.8703 4.55578 70.1514 4.60528 70.2751C4.67978 70.4621 4.77153 70.5001 5.14753 70.5001H5.60003V71.8799C5.60003 73.3586 5.61228 73.4011 6.20003 73.9716C6.70728 74.4636 6.77503 74.5001 7.18353 74.5001H7.60003L7.60053 75.4251C7.60128 76.7269 7.71628 77.0799 8.20678 77.2859C8.51453 77.4151 8.59828 77.5039 8.59903 77.7029C8.60078 78.1199 8.86478 78.4001 9.25578 78.4001C9.59978 78.4001 9.60003 78.4006 9.60053 78.8751C9.60203 80.0233 9.91303 80.3748 11.0163 80.4748L11.6 80.5278L11.6015 81.3391C11.6035 82.3213 11.626 82.3618 12.225 82.4516C12.591 82.5063 12.7 82.5644 12.7 82.7041C12.7 82.8964 13.0873 83.2509 13.4083 83.3526C13.559 83.4006 13.6 83.5076 13.6 83.8533C13.6 84.3436 13.7648 84.5001 14.281 84.5001C14.531 84.5001 14.5845 84.5473 14.638 84.8156C14.7273 85.2618 14.875 85.4001 15.2623 85.4001C15.5955 85.4001 15.6 85.4061 15.6 85.8466C15.6 86.3586 15.761 86.5001 16.3435 86.5001C16.6288 86.5001 16.7 86.5386 16.7 86.6928C16.7 86.8946 17.08 87.2486 17.4083 87.3526C17.5453 87.3961 17.6 87.5061 17.6 87.7378C17.6 88.3086 17.7613 88.4136 18.731 88.4741L19.6 88.5284V88.9308C19.6 89.3273 19.642 89.4036 20.1335 89.9001C20.5863 90.3576 20.7223 90.4316 21.1915 90.4766L21.6573 90.5213L21.617 90.0988C21.5948 89.8643 21.6598 89.3816 21.7633 89.0134C22.0318 88.0594 22.0573 53.3856 21.79 52.7989C21.6368 52.4621 21.5933 52.4396 20.7525 52.2651C20.2698 52.1646 19.7118 51.9924 19.5125 51.8824C18.638 51.3989 18.2225 51.0773 17.9223 50.6513C17.7455 50.4006 17.4995 50.1563 17.3755 50.1083C17.1493 50.0211 16.7 49.5648 16.7 49.4226C16.7 49.3808 16.596 49.1898 16.4688 48.9983C15.645 47.7571 15.603 43.1326 16.4078 42.2686C16.5135 42.1551 16.6 42.0288 16.6 41.9881C16.6 41.9471 16.8363 41.6656 17.125 41.3621C17.4138 41.0588 17.7175 40.7139 17.8 40.5956C17.8825 40.4776 17.995 40.3213 18.05 40.2483C18.2068 40.0406 18.8478 39.7188 19.258 39.6421C19.4633 39.6036 19.764 39.4451 19.9263 39.2901C20.2568 38.9741 20.9355 38.7521 21.8918 38.6471C22.3013 38.6021 22.606 38.5093 22.733 38.3906C22.8428 38.2886 23.077 38.1571 23.2538 38.0989C23.549 38.0014 23.5888 37.9348 23.749 37.2716C23.9395 36.4831 24.1383 36.0318 24.3973 35.8001C24.5905 35.6271 24.9 35.0329 24.9 34.8349C24.9 34.7606 24.94 34.7001 24.9893 34.7001C25.0383 34.7001 25.1058 34.5906 25.1395 34.4568C25.173 34.3228 25.279 34.1871 25.3753 34.1549C25.4713 34.1229 25.6325 33.9061 25.7335 33.6733C26.15 32.7133 26.116 32.7658 26.8228 32.0001C26.9495 31.8626 27.1738 31.6626 27.3208 31.5558C27.4678 31.4491 27.615 31.2541 27.648 31.1228C27.7138 30.8606 28.1898 30.1001 28.2883 30.1001C28.3223 30.0998 28.4808 29.9873 28.6405 29.8501C28.8003 29.7126 28.9683 29.6001 29.0135 29.6001C29.0588 29.6001 29.4528 29.2451 29.889 28.8111C30.499 28.2041 30.7995 27.9831 31.1903 27.8533C31.567 27.7283 31.7695 27.5841 31.974 27.2953C32.1408 27.0603 32.4085 26.8431 32.65 26.7471C33.4195 26.4413 33.6 26.3506 33.6 26.2701C33.6 26.1503 34.639 25.7121 35.0968 25.6391C35.3488 25.5988 35.5463 25.4943 35.6395 25.3523C35.8105 25.0911 36.497 24.7473 37.0573 24.6421C37.2733 24.6016 37.5985 24.4851 37.78 24.3833C37.9615 24.2813 38.434 24.1496 38.83 24.0906C39.226 24.0313 39.82 23.9358 40.15 23.8783C41.0718 23.7178 52.9985 23.6538 54.9 23.7991C56.7295 23.9391 57.8313 24.1378 58.1903 24.3923C58.333 24.4936 58.7055 24.6293 59.0178 24.6938C59.5475 24.8033 60.4 25.2918 60.4 25.4858C60.4 25.5323 60.693 25.6191 61.051 25.6783C62.1928 25.8676 64.299 27.0558 64.3 27.5113C64.3 27.5451 64.6018 27.7213 64.9708 27.9028C65.414 28.1211 65.8635 28.4586 66.2958 28.8981C66.6555 29.2638 67.1843 29.7098 67.4708 29.8893C67.757 30.0686 68.0188 30.3018 68.0525 30.4078C68.086 30.5136 68.1518 30.6001 68.1988 30.6001C68.2458 30.6001 68.3143 30.7371 68.351 30.9046C68.4968 31.5678 68.575 31.5921 71.2893 31.8131C73.254 31.9728 73.5418 32.0983 74.6088 33.2596C74.8063 33.4743 75.1163 33.7626 75.298 33.9001C75.4795 34.0376 75.6565 34.1726 75.6913 34.2001C75.8503 34.3256 76.08 34.7846 76.1428 35.1016C76.219 35.4871 76.2613 35.6011 76.6245 36.4001C77.2473 37.7704 77.2793 39.0506 76.7195 40.2143C76.5438 40.5798 76.3995 40.9624 76.3988 41.0644C76.3928 41.8719 75.9555 42.6301 74.875 43.7076C74.013 44.5671 74.0583 44.4246 74.098 46.1503C74.1058 46.4806 74.0365 47.2231 73.9443 47.8004C73.7785 48.8391 73.7843 49.1753 73.9955 50.8001C74.042 51.1576 74.088 59.6851 74.0975 69.7501C74.109 81.5791 74.151 88.2446 74.2163 88.6001C74.2718 88.9026 74.3398 89.4538 74.367 89.8251L74.4165 90.5001L74.8333 90.4946C75.668 90.4838 76.11 90.2191 76.369 89.5743C76.701 88.7486 76.9178 88.5691 77.6763 88.4906C78.4248 88.4131 78.3865 88.4416 78.48 87.8888C78.5465 87.4966 78.586 87.4466 78.8523 87.4164C79.253 87.3706 79.3825 87.2451 79.4193 86.8676C79.4475 86.5751 79.484 86.5456 79.8835 86.4923C80.37 86.4273 80.4963 86.2926 80.4985 85.8363C80.5 85.5423 80.5275 85.5186 80.9448 85.4561C81.3808 85.3909 81.3908 85.3808 81.456 84.9448C81.521 84.5111 81.5318 84.5001 81.8913 84.5001C82.3585 84.5001 82.5 84.3564 82.5 83.8821C82.5 83.5509 82.534 83.4963 82.775 83.4436C83.3463 83.3183 83.3183 83.3464 83.4435 82.7751C83.494 82.5449 83.5563 82.4998 83.827 82.4986C84.3808 82.4958 84.4453 82.3936 84.5 81.4291L84.55 80.5501L85.3 80.4698C86.2778 80.3651 86.3805 80.2603 86.463 79.2843L86.5275 78.5229L86.922 78.4698C87.4035 78.4053 87.4163 78.3931 87.4913 77.9324C87.5415 77.6229 87.6023 77.5493 87.863 77.4816C88.3295 77.3608 88.4065 77.1998 88.4705 76.2123C88.5278 75.3271 88.5348 75.3076 88.8183 75.2086C89.004 75.1441 89.1455 74.9994 89.2133 74.8054C89.2945 74.5721 89.4083 74.4786 89.7095 74.3976C90.313 74.2351 90.4213 73.9818 90.4783 72.5956L90.5275 71.4001H90.7983C91.1333 71.4001 91.4 71.1206 91.4 70.7693C91.4 70.5628 91.4843 70.4611 91.7803 70.3101C92.3448 70.0221 92.4253 69.7594 92.4778 68.0286L92.5243 66.5071L92.9365 66.4256C93.4123 66.3313 93.4683 66.1961 93.4883 65.0919L93.5 64.4333H93.8048C94.4375 64.4333 94.4463 64.3926 94.4853 61.2546L94.5203 58.4158L94.8148 58.2938C95.4745 58.0208 95.45 58.3316 95.45 50.2001C95.45 42.0559 95.4663 42.2639 94.8015 41.8824L94.523 41.7226L94.4833 38.9363C94.4395 35.8676 94.396 35.6479 93.8173 35.5811C93.5608 35.5514 93.5468 35.5183 93.4655 34.7501C93.3695 33.8396 93.3083 33.7296 92.8508 33.6436L92.5218 33.5818L92.4738 32.1661C92.4188 30.5441 92.3035 30.1908 91.7065 29.8156C91.4855 29.6766 91.2848 29.4466 91.2143 29.2516C91.1383 29.0416 90.9873 28.8776 90.7975 28.7991C90.501 28.6763 90.5 28.6726 90.5 27.8416C90.5 26.2681 90.0408 25.6001 88.959 25.6001H88.5248L88.4823 24.4131C88.437 23.1433 88.2875 22.7001 87.9048 22.7001C87.6273 22.7001 87.4 22.4286 87.4 22.0966C87.4 21.7791 87.173 21.6001 86.771 21.6001C86.5458 21.6001 86.5248 21.5546 86.4678 20.9463C86.3633 19.8258 86.1113 19.6043 84.9373 19.6011L84.5245 19.6001L84.481 18.6926C84.433 17.6846 84.3813 17.6041 83.7818 17.6016C83.5075 17.6006 83.398 17.5511 83.3525 17.4083C83.2485 17.0801 82.8945 16.7001 82.6928 16.7001C82.5423 16.7001 82.4998 16.6288 82.4988 16.3751C82.4958 15.6916 82.4238 15.6001 81.8883 15.6001C81.4003 15.6001 81.4 15.5998 81.4 15.2623C81.4 14.8751 81.2618 14.7273 80.8155 14.6381C80.5473 14.5846 80.5 14.5311 80.5 14.2811C80.5 13.7531 80.3465 13.6001 79.8165 13.6001C79.3658 13.6001 79.3335 13.5818 79.2178 13.2611C79.1398 13.0458 78.99 12.8788 78.807 12.8031C78.5223 12.6851 78.404 12.4593 78.4013 12.0286C78.3995 11.7076 78.1118 11.6001 77.2565 11.6001H76.5V11.1476C76.5 10.7708 76.4625 10.6806 76.275 10.6083C76.1513 10.5606 75.8708 10.3143 75.6515 10.0608C75.281 9.6321 75.2198 9.6001 74.7715 9.6001C74.332 9.6001 74.281 9.5751 74.1905 9.3161C74.0615 8.9456 73.4443 8.6001 72.9115 8.6001C72.5423 8.6001 72.5 8.5751 72.5 8.3566C72.5 7.6801 72.385 7.6001 71.4113 7.6001H70.5175L70.4465 7.1751C70.3625 6.6721 70.2793 6.6036 69.7495 6.6016C69.407 6.60035 69.3308 6.5591 69.224 6.31835C68.9995 5.81085 68.455 5.6001 67.3693 5.6001H66.416L66.3493 5.2966C66.2553 4.86885 65.9058 4.68085 65.0968 4.6231C64.4205 4.5746 64.4 4.56535 64.4 4.30585C64.4 3.6646 64.3563 3.65335 61.7535 3.61835C59.4208 3.5871 59.3915 3.5841 59.456 3.38085C59.4995 3.24435 59.4845 3.19785 59.4118 3.24285C59.3435 3.28485 59.3243 3.25285 59.3608 3.15785C59.4858 2.8326 59.1268 2.6736 58.153 2.6226C57.3103 2.5786 57.2105 2.55235 57.119 2.3516C57.0633 2.22935 56.8145 2.01035 56.566 1.86485L56.1145 1.6001L48.1323 1.6136C43.742 1.6211 40.0488 1.64685 39.9253 1.6706ZM62 34.7956C61.4568 35.2014 61.1 35.6856 61.1 36.0176C61.1 36.1116 61.0508 36.2188 60.9905 36.2561C60.8848 36.3213 60.9035 36.6018 61.0565 37.2501C61.2798 38.1956 63.0603 38.5966 63.8785 37.8856C64.0593 37.7286 64.2413 37.6001 64.2835 37.6001C64.759 37.6001 64.6413 35.8968 64.1278 35.3501C64.0245 35.2401 63.8538 35.0038 63.7485 34.8251C63.643 34.6463 63.4878 34.4996 63.4035 34.4991C63.319 34.4983 63.0925 34.4726 62.9 34.4416C62.6008 34.3934 62.4703 34.4446 62 34.7956ZM35.1535 37.4468C33.6245 37.8573 33.5943 40.3276 35.1093 41.0596C35.828 41.4069 36.558 41.5483 36.6753 41.3633C36.7823 41.1943 37.267 40.9001 37.4385 40.9001C37.5263 40.9001 37.6493 40.6921 37.749 40.3751C37.84 40.0863 37.9618 39.7526 38.0198 39.6331C38.1648 39.3346 38.0385 38.5933 37.7418 38.0023C37.4015 37.3248 36.405 37.1108 35.1535 37.4468ZM51.8763 39.5998C51.2793 39.6763 50.4948 39.8589 50.15 40.0014C50.04 40.0469 49.601 40.1618 49.1748 40.2571C48.3488 40.4413 48.3505 40.4401 46.9923 41.7388C46.3398 42.3626 46.241 42.7881 46.611 43.3803C46.7368 43.5818 48.3918 43.9996 49.85 44.1978C50.29 44.2576 50.8638 44.3501 51.125 44.4034C52.32 44.6469 52.5818 44.6769 53.05 44.6254C53.325 44.5949 53.5828 44.5148 53.623 44.4476C53.7033 44.3128 54.4318 44.0148 55.325 43.7511C55.6413 43.6578 55.9 43.5433 55.9 43.4966C55.9 43.4501 56.125 43.1771 56.4 42.8904C56.675 42.6036 56.9 42.3238 56.9 42.2688C56.9 42.2138 57.0113 42.0231 57.1475 41.8446L57.3948 41.5201L57.138 41.0351C56.7478 40.2986 56.7048 40.2729 55.1 39.8069C54.7995 39.7196 52.6428 39.4761 52.5 39.5133C52.4725 39.5203 52.1918 39.5593 51.8763 39.5998ZM94.162 39.6833C94.228 39.7738 94.261 39.8821 94.2353 39.9241C94.2093 39.9658 94.2358 40.0001 94.294 40.0001C94.3523 40.0001 94.4 40.1378 94.4 40.3061C94.4 40.4743 94.3593 40.5866 94.3093 40.5559C94.2595 40.5251 94.2428 40.5918 94.272 40.7041C94.3068 40.8368 94.2815 40.8983 94.2003 40.8793C94.1313 40.8633 94.0523 40.9126 94.0245 40.9891C93.9908 41.0821 94.0163 41.1018 94.1025 41.0486C94.1873 40.9961 94.2063 41.0088 94.1585 41.0863C94.1188 41.1506 94.033 41.1701 93.968 41.1293C93.9033 41.0883 93.7738 41.0676 93.6803 41.0831C93.5783 41.0998 93.4528 40.9986 93.365 40.8291C93.0193 40.1603 93.7463 39.1148 94.162 39.6833Z" fill="#CCCCCC"/>
<path fill-rule="evenodd" clip-rule="evenodd" d="M42.1 24.1497C42.0175 24.1675 41.6125 24.2357 41.2 24.3015C40.7875 24.367 40.315 24.463 40.15 24.5145C39.985 24.566 39.5125 24.6772 39.1 24.762C37.8455 25.0192 37.3562 25.183 36.186 25.738C35.766 25.9372 35.3835 26.1005 35.336 26.1007C35.019 26.1027 34.4472 26.3602 34.0825 26.665C33.8465 26.862 33.4252 27.1242 33.1462 27.2477C32.8675 27.371 32.4842 27.6027 32.2947 27.7625C32.105 27.9222 31.6242 28.2732 31.226 28.5422C30.828 28.8112 30.4362 29.103 30.3557 29.1907C29.766 29.833 29.3877 30.2002 29.3167 30.2002C29.1607 30.2002 28.43 30.9485 28.1527 31.392C28.0007 31.6347 27.6812 32.0315 27.443 32.2732C27.2045 32.5152 26.9817 32.8002 26.948 32.9067C26.9142 33.0132 26.8467 33.1002 26.7985 33.1002C26.6852 33.1002 25.7 34.697 25.7 34.8807C25.7 35.1095 25.3855 35.6365 24.9065 36.21C24.6 36.577 24.2897 37.2145 24.1585 37.7462C24.1185 37.909 23.9717 38.2747 23.8322 38.5595L23.579 39.0767L22.9645 39.1412C22.3152 39.209 21.4842 39.3737 21.15 39.5007C21.04 39.5425 20.6125 39.6982 20.2 39.847C19.7875 39.9955 19.3207 40.1662 19.1627 40.226C18.885 40.331 18 41.146 18 41.2965C18 41.3372 17.7807 41.6027 17.5127 41.8867C16.3042 43.1672 15.825 46.5832 16.666 47.9232C16.7947 48.1285 16.9 48.3385 16.9 48.3902C16.9 48.8772 18.5645 50.6735 19.3617 51.0467C19.5752 51.1465 19.8785 51.3185 20.0352 51.4285C20.1922 51.5385 20.6392 51.7122 21.029 51.8145C21.9882 52.0662 22.5887 52.3692 22.654 52.6342C22.7985 53.221 22.6497 89.0505 22.5017 89.3002C22.4202 89.4377 22.3077 89.7285 22.2517 89.9465C22.1775 90.2355 22.0825 90.3635 21.9 90.4197C21.7232 90.4742 21.777 90.4852 22.0832 90.457C22.6165 90.4077 22.619 90.4055 22.712 89.8237C22.7537 89.5632 22.8467 89.1027 22.9187 88.8002C23.0677 88.1755 23.1182 53.0955 22.971 52.5672C22.881 52.2442 21.9885 51.78 21.2082 51.6505C20.9655 51.61 20.6877 51.5035 20.5912 51.4137C20.4945 51.3237 20.1532 51.1165 19.8327 50.953C19.2815 50.6717 19.0295 50.5037 18.3672 49.9757C18.0325 49.7085 17.2 48.5717 17.2 48.3815C17.2 48.3085 17.0937 48.0465 16.9637 47.7995C16.4855 46.8902 16.3685 45.0045 16.7385 44.1665C17.0115 43.5482 17.2 42.9935 17.2 42.809C17.2 42.7062 17.4137 42.392 17.675 42.111C17.9362 41.8297 18.3525 41.3717 18.6 41.0927C19.18 40.4392 19.3462 40.3305 20.0597 40.138C20.3845 40.0505 20.8075 39.9355 21 39.8827C21.7307 39.6822 23.0607 39.408 23.32 39.4042C23.678 39.399 24.038 38.9205 24.299 38.1032C24.41 37.7555 24.7407 37.1065 25.034 36.6607C25.7972 35.5007 25.844 35.413 26.0422 34.7712C26.1522 34.415 26.3567 34.0492 26.573 33.8212C26.7667 33.6172 26.998 33.3377 27.0875 33.2002C27.328 32.8302 27.5222 32.5967 27.7852 32.361C27.9145 32.245 28.1112 31.9575 28.2227 31.722C28.334 31.4865 28.5127 31.247 28.6197 31.1897C28.727 31.1322 28.982 30.92 29.1865 30.7177C29.3907 30.5157 29.6912 30.2337 29.854 30.0915C30.0167 29.9492 30.2175 29.7425 30.3 29.6322C30.3825 29.522 30.585 29.348 30.75 29.2457C30.915 29.1435 31.2402 28.889 31.4727 28.68C31.7052 28.4712 31.933 28.3002 31.979 28.3002C32.0247 28.3002 32.1537 28.215 32.2652 28.111C32.377 28.007 32.7342 27.7932 33.0592 27.636C33.3842 27.4787 33.665 27.3165 33.6832 27.2752C33.7017 27.234 33.7717 27.2002 33.8392 27.2002C33.9067 27.2002 34.0987 27.0665 34.266 26.9032C34.567 26.6087 35.3797 26.2002 35.6647 26.2002C35.746 26.2002 36.2485 26.0265 36.7812 25.814C37.9565 25.3455 38.37 25.2217 39.15 25.1052C39.48 25.056 39.9075 24.9702 40.1 24.9145C42.4965 24.2212 42.6062 24.2117 48.3235 24.2057C51.4382 24.2022 53.5617 24.2395 53.8235 24.302C54.058 24.358 54.903 24.5605 55.7012 24.752C56.4992 24.9435 57.2277 25.1002 57.3197 25.1002C57.5015 25.1002 58.9042 25.6032 59.55 25.8997C59.77 26.0007 60.265 26.1777 60.65 26.2927C61.083 26.4222 61.4717 26.616 61.6695 26.801C61.8452 26.9657 62.0252 27.1017 62.0695 27.1037C62.3045 27.1135 64.0027 28.1437 64.0832 28.3252C64.1017 28.3665 64.1732 28.4002 64.2422 28.4002C64.3112 28.4002 64.5345 28.5802 64.738 28.8002C64.9415 29.0202 65.1442 29.2002 65.1882 29.2002C65.2515 29.2002 66.1017 29.969 66.75 30.6122C66.805 30.6667 66.9782 30.8327 67.1347 30.9807C67.427 31.2575 67.601 31.447 67.95 31.869C68.2117 32.1852 68.683 32.2945 70.2 32.39C71.351 32.4625 71.5105 32.4977 72.2135 32.8345C72.6332 33.0357 73.0507 33.2002 73.1407 33.2002C73.2307 33.2002 73.5172 33.4192 73.7772 33.687C74.0372 33.9545 74.323 34.2132 74.4122 34.262C75.6025 34.91 76.3557 37.564 75.9555 39.7002C75.8785 40.1127 75.762 40.7315 75.697 41.0752C75.6317 41.419 75.542 41.7002 75.4975 41.7002C75.4527 41.7002 75.2662 41.862 75.083 42.0597C74.9 42.2575 74.5587 42.6247 74.325 42.8757C74.0912 43.1267 73.9 43.3667 73.9 43.409C73.9 43.4512 73.842 43.5455 73.7715 43.618C73.117 44.2905 73.092 44.3787 72.9475 46.5502C72.8575 47.9012 72.677 48.1042 72.043 47.5675C71.7597 47.328 71.4402 47.1852 70.9 47.0575C70.455 46.9522 70.0482 46.7875 69.9 46.6522C69.1265 45.9472 64.7832 45.6072 64.0962 46.198L63.75 46.4957L64 46.6942C64.3415 46.9652 64.4945 46.9895 66.5262 47.092C68.0127 47.1672 68.3572 47.2142 68.6387 47.3805C68.824 47.4895 69.127 47.6107 69.3127 47.6495C69.6782 47.7257 70.4292 48.1202 70.75 48.4045C70.86 48.502 71.1502 48.6852 71.395 48.8115C71.9642 49.1055 72.5247 49.684 72.8187 50.281L73.05 50.7502L73.0725 69.7915C73.0875 82.3922 73.1295 88.937 73.197 89.1415C73.253 89.3112 73.3267 89.6527 73.3605 89.9002C73.3942 90.1477 73.4282 90.355 73.436 90.361C73.4437 90.3667 73.5965 90.3995 73.7757 90.4335C74.0967 90.4947 74.0992 90.4922 73.9505 90.265C73.8672 90.138 73.8252 90.0082 73.857 89.9765C73.8887 89.9447 73.799 89.6742 73.6575 89.3752L73.4002 88.8317L73.3752 69.691L73.35 50.5502L73.028 49.9667C72.8507 49.6457 72.677 49.229 72.6415 49.0407C72.5927 48.78 72.5145 48.6825 72.3137 48.6315L72.05 48.5645L72.3567 48.4842C72.9985 48.3162 73.3 47.6735 73.3 46.4727C73.3 44.5465 73.382 44.3565 74.9297 42.6917C75.3035 42.2897 75.6692 41.8232 75.7425 41.6555C76.0377 40.9785 76.4087 38.8657 76.3407 38.2502C76.2272 37.226 76.0737 36.2512 76.0037 36.112C75.959 36.023 75.802 35.6962 75.6547 35.386C75.3527 34.7497 74.9915 34.3155 74.55 34.0587C74.385 33.9627 74.1375 33.7327 74 33.5475C73.476 32.8412 71.8115 32.2067 70.45 32.194C68.7832 32.1785 68.0212 31.9317 67.8447 31.3502C67.8115 31.2402 67.535 30.9252 67.2307 30.6502C66.9265 30.3752 66.3592 29.8402 65.9702 29.4612C65.5812 29.0822 64.9675 28.581 64.6065 28.3472C64.2455 28.1135 63.86 27.8205 63.75 27.6962C63.64 27.5717 63.275 27.3442 62.939 27.1905C62.603 27.0367 62.1962 26.8002 62.0352 26.6645C61.8742 26.529 61.4967 26.345 61.1962 26.2555C60.8957 26.1662 60.335 25.9367 59.95 25.7457C59.2037 25.3755 57.7667 24.8885 56.7 24.6442C56.3425 24.5625 55.735 24.4237 55.35 24.3362C54.7142 24.1917 42.69 24.0222 42.1 24.1497ZM61.95 33.8397C60.5652 34.1642 59.688 35.7 60.0335 37.1955C60.461 39.0455 63.088 39.9642 64.3892 38.7185C64.486 38.626 64.6747 38.4602 64.809 38.3502C65.611 37.6925 65.779 36.3442 65.214 35.1002C64.692 33.9515 63.4767 33.4822 61.95 33.8397ZM63.93 34.162C64.9047 34.6545 65.4552 35.966 65.1955 37.177C65.0897 37.6707 65.0035 37.7855 64.2 38.5C63.608 39.0265 62.2605 39.2007 61.862 38.8022C61.806 38.7462 61.6867 38.7002 61.5972 38.7002C61.363 38.7002 60.4352 37.6597 60.2975 37.2425C60.1537 36.8072 60.2877 35.5587 60.4952 35.4002C60.5312 35.3727 60.6565 35.192 60.774 34.9985C61.242 34.2275 61.6747 34.034 62.98 34.0112C63.3812 34.0042 63.7262 34.059 63.93 34.162ZM35.445 36.288C35.3927 36.3362 35.1175 36.4607 34.8332 36.5645C34.3172 36.753 33.6 37.3062 33.6 37.516C33.6 37.577 33.5187 37.6995 33.4195 37.7885C32.805 38.339 32.7965 39.654 33.4027 40.3502C33.4987 40.4602 33.6112 40.6627 33.653 40.8002C33.9285 41.705 34.44 42.0865 35.485 42.167C37.1912 42.2985 37.8357 42.0432 38.3415 41.0352C38.5112 40.697 38.7255 40.337 38.818 40.235C39.2925 39.7122 39.2775 38.643 38.7885 38.1197C38.6305 37.9507 38.375 37.596 38.2207 37.3315C37.745 36.516 35.9347 35.8355 35.445 36.288ZM37.35 36.8232C37.64 36.9702 38.1 37.4185 38.1 37.554C38.1 37.618 38.2295 37.8492 38.388 38.0677C38.8632 38.7237 38.9577 39.413 38.641 39.9142C38.4992 40.139 38.3022 40.509 38.2032 40.7365C37.7932 41.6802 37.0307 42.0747 35.8177 41.9707C34.631 41.8692 34.29 41.6177 33.755 40.4502C33.6542 40.2302 33.4837 39.9245 33.376 39.771C33.1492 39.4472 33.2547 38.4312 33.5455 38.1405C33.6305 38.0555 33.7 37.9217 33.7 37.843C33.7 37.7645 33.745 37.7002 33.8 37.7002C33.855 37.7002 33.9 37.6435 33.9 37.5742C33.9 36.8422 36.3402 36.3112 37.35 36.8232ZM51.35 38.7C50.91 38.745 50.3925 38.8277 50.2 38.8842C49.7647 39.0117 49.4552 39.0952 48.9795 39.2135C48.7757 39.264 48.5502 39.3605 48.4787 39.428C48.407 39.4952 48.038 39.7035 47.6587 39.8905C46.2247 40.5985 45.5902 41.7247 45.8475 43.1047C45.988 43.8577 46.1657 44.0657 46.8587 44.2875C47.184 44.3915 47.675 44.6165 47.95 44.7872C48.409 45.0725 48.5567 45.106 49.75 45.1967C51.3997 45.322 51.7915 45.4185 52.0795 45.77C52.2057 45.9242 52.3885 46.1457 52.4855 46.2622C52.5825 46.379 52.7202 46.739 52.7917 47.0622C52.863 47.3857 52.968 47.776 53.0247 47.9297C53.149 48.2662 53.0495 49.5337 52.8947 49.5852C52.835 49.6052 52.5082 49.857 52.1682 50.1447C51.4437 50.758 51.2817 50.85 50.7617 50.944C50.4115 51.0075 49.7 51.5792 49.7 51.7975C49.7 51.9672 48.847 52.1205 47.65 52.1655C46.7225 52.2002 46.258 52.2612 46.0287 52.378L45.7075 52.5417L46.1602 52.8062C47.109 53.3602 50.2 53.0847 50.2 52.446C50.2 52.3687 50.3865 52.2575 50.625 52.1927C50.8587 52.1292 51.545 51.9207 52.15 51.7297C53.327 51.3577 53.266 51.3595 54.9 51.649C58.0165 52.2015 59.6685 52.0412 59.855 51.1682C59.8925 50.9935 59.97 50.792 60.0272 50.721C60.1842 50.5262 59.9617 50.3602 59.5432 50.3602C59.347 50.3602 59.1557 50.404 59.1182 50.4575C58.8235 50.8777 57.16 50.904 55.7437 50.5107C55.5272 50.4505 55.1652 50.401 54.9395 50.4007C54.6455 50.4005 54.4612 50.3342 54.2895 50.1672C53.691 49.5855 53.7 49.6197 53.7015 47.874C53.7037 45.447 53.7395 45.383 55.5905 44.4845C57.494 43.5605 58.1077 42.8567 58.1117 41.5937C58.1152 40.5095 57.7845 39.8675 57.113 39.6545C56.996 39.6172 56.9 39.548 56.9 39.5007C56.9 38.957 53.5552 38.4742 51.35 38.7ZM54.9 39.0872C55.6117 39.1812 56.2095 39.426 57.2707 40.058C57.7697 40.3552 58.1665 41.9237 57.8 42.1502C57.745 42.1842 57.699 42.2882 57.698 42.3812C57.696 42.5255 56.893 43.432 56.482 43.7535C56.3265 43.8752 55.8665 44.0857 55.0842 44.3935C54.5755 44.5935 54.1882 44.8597 53.6782 45.36C53.4857 45.5487 52.4077 45.5142 52.1635 45.3115C52.0142 45.1875 51.0755 45.0332 49.657 44.8992C48.8787 44.8257 48.5325 44.7405 48.057 44.5045C47.7232 44.3392 47.2925 44.1745 47.1 44.1385C45.9625 43.9267 45.5825 42.0615 46.4882 41.1347C46.9355 40.6772 47.4882 40.2002 47.5722 40.1997C47.615 40.1995 47.8647 40.0905 48.1272 39.9572C48.3897 39.824 48.7497 39.6865 48.9272 39.6512C49.1047 39.6162 49.4785 39.4982 49.7577 39.3892C50.9235 38.934 52.8765 38.8192 54.9 39.0872ZM67.8762 46.3622C69.1197 46.5405 68.2477 46.755 66.4 46.7255C64.6635 46.6977 64.2192 46.641 64.3915 46.4687C64.6145 46.2457 66.633 46.1842 67.8762 46.3622ZM38.005 49.0962C37.7052 49.1927 37.3227 49.4067 37.155 49.572C36.9872 49.737 36.6062 49.9572 36.3082 50.0612C35.8192 50.232 35.1 50.7762 35.1 50.9757C35.1 51.0192 34.947 51.137 34.7602 51.2377C34.5732 51.3385 34.3425 51.5655 34.247 51.7425C34.15 51.9232 33.882 52.1662 33.637 52.2962C33.3965 52.4237 33.2 52.5627 33.2 52.605C33.2 52.6472 33.0037 52.923 32.7637 53.2175C32.3562 53.7177 31.9 54.5177 31.9 54.732C31.9 54.7837 31.7472 54.995 31.5607 55.2015C30.969 55.8565 30.8862 56.8562 31.3972 57.1752C31.604 57.3045 32.0015 56.8157 32.1382 56.2647C32.1772 56.1077 32.288 55.9585 32.3845 55.9332C32.581 55.882 32.7095 55.6985 33.1095 54.9002C33.2612 54.5977 33.4672 54.278 33.5675 54.1895C33.8477 53.9427 34.1 53.61 34.1 53.4875C34.1 53.4265 34.2687 53.2125 34.475 53.0115C34.6812 52.8105 34.9295 52.5237 35.0267 52.374C35.124 52.2242 35.4165 51.9877 35.6767 51.8482C35.937 51.7085 36.375 51.4595 36.65 51.2945C36.925 51.1295 37.244 50.9547 37.3587 50.906C37.4735 50.8575 37.7197 50.6562 37.9057 50.459C38.0917 50.2617 38.319 50.1002 38.4107 50.1002C38.5602 50.1002 40.102 49.6187 40.183 49.5467C40.2012 49.5305 40.1685 49.4282 40.1102 49.3192C39.8802 48.8897 38.9517 48.7915 38.005 49.0962ZM65.15 49.1675C64.4155 49.329 64.2297 49.5405 64.6735 49.7092C64.824 49.7665 65.0827 49.873 65.2485 49.946C65.4142 50.019 65.6297 50.1052 65.7272 50.1372C65.8247 50.1695 65.9332 50.2755 65.9682 50.373C66.0752 50.6702 66.384 50.9072 66.8787 51.071C67.5517 51.294 67.9677 51.64 68.2127 52.1802C68.33 52.4387 68.5565 52.7592 68.7162 52.8925C68.876 53.0257 69.098 53.2957 69.2095 53.4925C69.3212 53.6892 69.556 53.9177 69.7312 54.0002C69.9852 54.1197 70.0645 54.2315 70.121 54.5502C70.341 55.7902 70.3052 55.7475 71.0502 55.6545L71.5855 55.5877L71.3427 55.23C71.2092 55.0332 71.1 54.7967 71.1 54.7042C71.1 54.5205 70.6615 54.0117 70.3607 53.846C70.2565 53.7887 70.1075 53.5187 70.0295 53.246C69.9515 52.9735 69.8567 52.6425 69.8187 52.5105C69.781 52.3787 69.6607 52.2212 69.5515 52.1605C69.2965 52.019 68.9142 51.5982 68.8452 51.3835C68.816 51.292 68.6585 51.1705 68.4952 51.1135C68.3232 51.0535 68.157 50.9002 68.099 50.7477C67.9452 50.343 67.7442 50.1957 67.2262 50.1077C66.5647 49.9952 66.2272 49.8435 66.1587 49.6275C66.1265 49.5262 65.9695 49.3662 65.8097 49.272C65.5112 49.0957 65.491 49.0925 65.15 49.1675ZM38.8092 49.6257C38.622 49.6742 38.352 49.6827 38.2092 49.6445L37.95 49.575L38.2445 49.4495C38.4627 49.3567 38.618 49.3517 38.8445 49.4307L39.15 49.5375L38.8092 49.6257ZM53.7665 50.2485L53.983 50.5885L53.7562 50.737C53.5785 50.8535 53.436 50.8645 53.0982 50.7887C52.3325 50.6167 52.3 50.543 52.8785 50.2905C53.1652 50.1652 53.4 50.0262 53.4 49.9815C53.4 49.8075 53.5597 49.924 53.7665 50.2485ZM36.975 50.4582C37.117 50.5055 37.0932 50.5402 36.85 50.6417C36.508 50.7845 36.2 50.739 36.2 50.546C36.2 50.4737 36.2787 50.3975 36.375 50.376C36.5507 50.337 36.651 50.3507 36.975 50.4582ZM58.7 51.401L58.95 51.542L58.65 51.6092C58.2612 51.6965 56.6375 51.6962 56.25 51.609L55.95 51.5415L56.25 51.3687C56.6237 51.154 58.3005 51.176 58.7 51.401ZM51.7 51.4905C51.7 51.601 50.5525 51.7445 50.4037 51.6525C50.3447 51.6162 50.3227 51.5445 50.3542 51.4932C50.4282 51.3735 51.7 51.3707 51.7 51.4905ZM41.3665 51.967C41.3297 52.0037 41.0455 52.0682 40.735 52.1105C40.4242 52.1525 40.143 52.2262 40.11 52.274C40.077 52.3217 39.87 52.4905 39.65 52.6492C38.8542 53.223 37.9 54.3705 37.9 54.754C37.9 54.8405 37.7685 55.0327 37.6077 55.181C37.3317 55.4352 36.9002 56.3657 36.9 56.7065C36.9 56.7922 36.816 56.9525 36.7135 57.0625C35.9625 57.8687 35.952 60.1442 36.7012 59.6762C36.8895 59.5587 37.6315 58.0325 37.7837 57.4502C37.8412 57.2302 37.942 56.8252 38.0077 56.5502C38.084 56.231 38.2397 55.939 38.4387 55.7425C38.7977 55.3872 38.9737 55.1697 39.2412 54.7502C39.3462 54.5852 39.5747 54.3145 39.7487 54.1485C39.9225 53.9825 40.1502 53.7165 40.2547 53.5572C40.37 53.3812 40.691 53.1557 41.0722 52.983C41.7122 52.6927 41.7667 52.6097 41.637 52.1252C41.5757 51.8972 41.4877 51.8457 41.3665 51.967ZM49.6 52.5002C49.6 52.559 49.3012 52.5945 48.875 52.586C48.253 52.574 48.2067 52.5617 48.55 52.5002C49.1662 52.39 49.6 52.39 49.6 52.5002ZM33.6615 53.5562C33.599 53.719 33.3422 53.7495 33.253 53.605C33.2205 53.5525 33.2725 53.4177 33.3685 53.3057C33.5622 53.0795 33.7747 53.2612 33.6615 53.5562ZM39.662 53.4455C39.7545 53.6867 39.6142 53.811 39.4005 53.6772C39.2592 53.5892 39.2377 53.5252 39.3172 53.4292C39.4582 53.2595 39.593 53.2657 39.662 53.4455ZM32.7215 54.3752C32.7462 54.4715 32.7102 54.6852 32.6415 54.8502C32.5177 55.1465 32.5007 55.137 32.3715 54.7002C32.3205 54.5285 32.4652 54.2002 32.5917 54.2002C32.6385 54.2002 32.697 54.279 32.7215 54.3752ZM38.7062 54.6885C38.547 54.986 38.4 54.9517 38.4 54.617C38.4 54.257 38.4995 54.1567 38.6787 54.3362C38.7885 54.446 38.7945 54.5235 38.7062 54.6885ZM31.6 56.4702C31.6 56.656 31.5677 56.708 31.4967 56.637C31.44 56.5802 31.4222 56.4587 31.4575 56.367C31.55 56.1255 31.6 56.1617 31.6 56.4702ZM37.597 56.5752C37.5945 56.8812 37.575 56.9177 37.4907 56.7732C37.4342 56.6757 37.416 56.507 37.4507 56.3982C37.5467 56.0957 37.6002 56.1607 37.597 56.5752ZM36.6285 58.7025C36.5712 58.9205 36.561 58.924 36.4987 58.7465C36.405 58.4792 36.4982 58.122 36.6097 58.3215C36.6542 58.4005 36.6625 58.572 36.6285 58.7025Z" fill="#CCCCCC"/>
<path fill-rule="evenodd" clip-rule="evenodd" d="M41.1917 23.7405C41.1687 23.7625 40.7675 23.8292 40.3 23.889C38.5782 24.1087 38.1027 24.202 37.78 24.3832C37.5985 24.4852 37.2732 24.6017 37.0572 24.6422C36.497 24.7475 35.8105 25.0912 35.6395 25.3525C35.5462 25.4945 35.3487 25.599 35.0967 25.6392C34.639 25.7122 33.6 26.1505 33.6 26.2702C33.6 26.3507 33.4195 26.4415 32.65 26.7472C32.4085 26.8432 32.1407 27.0605 31.974 27.2955C31.7695 27.5842 31.567 27.7285 31.1902 27.8535C30.7995 27.9832 30.499 28.2042 29.889 28.8112C29.4527 29.2452 29.0587 29.6002 29.0135 29.6002C28.9682 29.6002 28.8002 29.7127 28.6405 29.8502C28.4807 29.9875 28.3222 30.1 28.2882 30.1002C28.1897 30.1002 27.7137 30.8607 27.648 31.123C27.615 31.2542 27.4677 31.4492 27.3207 31.556C27.1737 31.6627 26.9495 31.8627 26.8227 32.0002C26.116 32.766 26.15 32.7135 25.7335 33.6735C25.6325 33.9062 25.4712 34.123 25.3752 34.155C25.279 34.1872 25.173 34.323 25.1395 34.457C25.1057 34.5907 25.0382 34.7002 24.9892 34.7002C24.94 34.7002 24.9 34.7607 24.9 34.835C24.9 35.033 24.5905 35.6272 24.3972 35.8002C24.1382 36.032 23.9395 36.4832 23.749 37.2717C23.5887 37.935 23.549 38.0015 23.2537 38.099C23.077 38.1572 22.8427 38.2887 22.733 38.3907C22.606 38.5095 22.3012 38.6022 21.8917 38.6472C20.9355 38.7522 20.2567 38.9742 19.9262 39.2902C19.764 39.4452 19.4632 39.6037 19.258 39.6422C18.8477 39.719 18.2067 40.0407 18.05 40.2485C17.995 40.3215 17.8825 40.4777 17.8 40.5957C17.7175 40.714 17.4137 41.059 17.125 41.3622C16.8362 41.6657 16.6 41.9472 16.6 41.9882C16.6 42.029 16.5135 42.1552 16.4077 42.2687C15.603 43.1327 15.645 47.7572 16.4687 48.9985C16.596 49.19 16.7 49.381 16.7 49.4227C16.7 49.565 17.1492 50.0212 17.3755 50.1085C17.4995 50.1565 17.7455 50.4007 17.9222 50.6515C18.2225 51.0775 18.638 51.399 19.5125 51.8825C19.7117 51.9925 20.2697 52.1647 20.7525 52.2652C21.5932 52.4397 21.6367 52.4622 21.79 52.799C22.0457 53.3607 22.0295 88.1882 21.773 88.9935C21.492 89.8757 21.532 90.4212 21.875 90.382C22.1027 90.3557 22.1675 90.2817 22.2517 89.9502C22.3077 89.7302 22.4202 89.4377 22.5017 89.3002C22.6497 89.0505 22.7985 53.221 22.654 52.6342C22.5887 52.3692 21.9882 52.0662 21.029 51.8145C20.6392 51.7122 20.1922 51.5385 20.0352 51.4285C19.8785 51.3185 19.5752 51.1465 19.3617 51.0467C18.5645 50.6735 16.9 48.8772 16.9 48.3902C16.9 48.3385 16.7947 48.1285 16.666 47.9232C15.825 46.5832 16.3042 43.1672 17.5127 41.8867C17.7807 41.6027 18 41.3372 18 41.2965C18 41.146 18.885 40.331 19.1627 40.226C19.3207 40.1662 19.7875 39.9955 20.2 39.847C20.6125 39.6982 21.04 39.5425 21.15 39.5007C21.4842 39.3737 22.3152 39.209 22.9645 39.1412L23.579 39.0767L23.8322 38.5595C23.9717 38.2747 24.1185 37.909 24.1585 37.7462C24.2897 37.2145 24.6 36.577 24.9065 36.21C25.3855 35.6365 25.7 35.1095 25.7 34.8807C25.7 34.697 26.6852 33.1002 26.7985 33.1002C26.8467 33.1002 26.9142 33.0132 26.948 32.9067C26.9817 32.8002 27.2045 32.5152 27.443 32.2732C27.6812 32.0315 28.0007 31.6347 28.1527 31.392C28.43 30.9485 29.1607 30.2002 29.3167 30.2002C29.3877 30.2002 29.766 29.833 30.3557 29.1907C30.4362 29.103 30.828 28.8112 31.226 28.5422C31.6242 28.2732 32.105 27.9222 32.2947 27.7625C32.4842 27.6027 32.8675 27.371 33.1462 27.2477C33.4252 27.1242 33.8465 26.862 34.0825 26.665C34.4472 26.3602 35.019 26.1027 35.336 26.1007C35.3835 26.1005 35.766 25.9372 36.186 25.738C37.3562 25.183 37.8455 25.0192 39.1 24.762C39.5125 24.6772 39.985 24.566 40.15 24.5145C41.208 24.1842 41.9605 24.1502 48.2 24.1512C54.8597 24.1525 54.4377 24.128 56.7 24.6447C57.7642 24.8877 59.203 25.375 59.95 25.7457C60.335 25.9367 60.8957 26.1662 61.1962 26.2555C61.4967 26.345 61.8742 26.529 62.0352 26.6645C62.1962 26.8002 62.603 27.0367 62.939 27.1905C63.275 27.3442 63.64 27.5717 63.75 27.6962C63.86 27.8205 64.2455 28.1135 64.6065 28.3472C64.9675 28.581 65.5812 29.0822 65.9702 29.4612C66.3592 29.8402 66.9265 30.3752 67.2307 30.6502C67.535 30.9252 67.8115 31.2402 67.8447 31.3502C68.0212 31.9317 68.7832 32.1785 70.45 32.194C71.8115 32.2067 73.476 32.8412 74 33.5475C74.1375 33.7327 74.385 33.9627 74.55 34.0587C74.9915 34.3155 75.3527 34.7497 75.6547 35.386C75.802 35.6962 75.959 36.023 76.0037 36.112C76.0737 36.2512 76.2272 37.226 76.3407 38.2502C76.4087 38.8657 76.0377 40.9785 75.7425 41.6555C75.6692 41.8232 75.3035 42.2897 74.9297 42.6917C73.382 44.3565 73.3 44.5465 73.3 46.4727C73.3 47.6735 72.9985 48.3162 72.3567 48.4842L72.05 48.5645L72.3137 48.6315C72.5145 48.6825 72.5927 48.78 72.6415 49.0407C72.677 49.229 72.8507 49.6457 73.028 49.9667L73.35 50.5502L73.3752 69.691L73.4002 88.8317L73.6545 89.3687C73.794 89.664 73.8825 89.9477 73.8505 89.9992C73.7845 90.1062 74.1445 90.5002 74.3082 90.5002C74.4302 90.5002 74.382 89.502 74.2162 88.6002C74.151 88.2447 74.109 81.5792 74.0975 69.7502C74.088 59.6852 74.042 51.1577 73.9955 50.8002C73.7842 49.1755 73.7785 48.8392 73.9442 47.8005C74.0365 47.2232 74.1057 46.4807 74.098 46.1505C74.0582 44.4247 74.013 44.5672 74.875 43.7077C75.9555 42.6302 76.3927 41.872 76.3987 41.0645C76.3995 40.9625 76.5437 40.58 76.7195 40.2145C77.2792 39.0507 77.2472 37.7705 76.6245 36.4002C76.2612 35.6012 76.219 35.4872 76.1427 35.1017C76.08 34.7847 75.8502 34.3257 75.6912 34.2002C75.6565 34.1727 75.4795 34.0377 75.298 33.9002C75.1162 33.7627 74.8062 33.4745 74.6087 33.2597C73.5417 32.0985 73.254 31.973 71.2892 31.8132C68.575 31.5922 68.4967 31.568 68.351 30.9047C68.3142 30.7372 68.2457 30.6002 68.1987 30.6002C68.1517 30.6002 68.086 30.5137 68.0525 30.408C68.0187 30.302 67.757 30.0687 67.4707 29.8895C67.1842 29.71 66.6555 29.264 66.2957 28.8982C65.8635 28.4587 65.414 28.1212 64.9707 27.903C64.6017 27.7215 64.3 27.5452 64.3 27.5115C64.299 27.056 62.1927 25.8677 61.051 25.6785C60.693 25.6192 60.4 25.5325 60.4 25.486C60.4 25.292 59.5475 24.8035 59.0177 24.694C58.7055 24.6295 58.332 24.493 58.1875 24.3905C57.8617 24.1597 56.735 23.946 55.1 23.8055C53.9417 23.7057 41.289 23.6467 41.1917 23.7405ZM61.909 34.1087C61.4267 34.2035 61.1022 34.4577 60.774 34.9985C60.6565 35.192 60.5312 35.3727 60.4952 35.4002C60.2877 35.5587 60.1537 36.8072 60.2975 37.2425C60.4352 37.6597 61.363 38.7002 61.5972 38.7002C61.6867 38.7002 61.806 38.7462 61.862 38.8022C62.2605 39.2007 63.608 39.0265 64.2 38.5C65.0035 37.7855 65.0897 37.6707 65.1955 37.177C65.6565 35.028 64.1917 33.6607 61.909 34.1087ZM63.4035 34.4992C63.4877 34.4997 63.643 34.6465 63.7485 34.8252C63.8537 35.004 64.0245 35.2402 64.1277 35.3502C64.6412 35.897 64.759 37.6002 64.2835 37.6002C64.2412 37.6002 64.0592 37.7287 63.8785 37.8857C63.0602 38.5967 61.2797 38.1957 61.0565 37.2502C60.9035 36.602 60.8847 36.3215 60.9905 36.2562C61.0507 36.219 61.1 36.1117 61.1 36.0177C61.1 35.3987 62.3027 34.3455 62.9 34.4417C63.0925 34.4727 63.319 34.4985 63.4035 34.4992ZM35.85 36.6175C34.8487 36.7452 33.9 37.2107 33.9 37.5742C33.9 37.6435 33.855 37.7002 33.8 37.7002C33.745 37.7002 33.7 37.7645 33.7 37.843C33.7 37.9217 33.6305 38.0555 33.5455 38.1405C33.2547 38.4312 33.1492 39.4472 33.376 39.771C33.4837 39.9245 33.6542 40.2302 33.755 40.4502C34.29 41.6177 34.631 41.8692 35.8177 41.9707C37.0307 42.0747 37.7932 41.6802 38.2032 40.7365C38.3022 40.509 38.4992 40.139 38.641 39.9142C38.9577 39.413 38.8632 38.7237 38.388 38.0677C38.2295 37.8492 38.1 37.618 38.1 37.554C38.1 37.021 36.8305 36.4925 35.85 36.6175ZM36.9937 37.4082C37.7155 37.563 38.3535 38.9467 38.0197 39.6332C37.9617 39.7527 37.84 40.0865 37.749 40.3752C37.6492 40.6922 37.5262 40.9002 37.4385 40.9002C37.267 40.9002 36.7822 41.1945 36.6752 41.3635C36.3637 41.8555 34.545 40.9497 34.2395 40.1502C33.4777 38.156 34.719 36.9205 36.9937 37.4082ZM51.0577 39.052C50.622 39.1285 50.037 39.2802 49.7577 39.3892C49.4785 39.4982 49.1047 39.6162 48.9272 39.6512C48.7497 39.6865 48.3897 39.824 48.1272 39.9572C47.8647 40.0905 47.615 40.1995 47.5722 40.1997C47.4882 40.2002 46.9355 40.6772 46.4882 41.1347C45.5825 42.0615 45.9625 43.9267 47.1 44.1385C47.2925 44.1745 47.7232 44.3392 48.057 44.5045C48.5325 44.7405 48.8787 44.8257 49.657 44.8992C51.0755 45.0332 52.0142 45.1875 52.1635 45.3115C52.4077 45.5142 53.4857 45.5487 53.6782 45.36C54.1882 44.8597 54.5755 44.5935 55.0842 44.3935C55.8665 44.0857 56.3265 43.8752 56.482 43.7535C56.893 43.432 57.696 42.5255 57.698 42.3812C57.699 42.2882 57.745 42.1842 57.8 42.1502C57.9532 42.0555 57.9187 41.1062 57.7457 40.653C57.5845 40.231 57.4602 40.1342 56.3 39.5267C55.2935 38.9997 52.6967 38.7645 51.0577 39.052ZM53.65 39.6027C54.7317 39.7035 54.9 39.7377 56 40.0795C56.661 40.2847 56.8037 40.4045 57.138 41.0352L57.3947 41.5202L57.1475 41.8447C57.0112 42.0232 56.9 42.214 56.9 42.269C56.9 42.324 56.675 42.6037 56.4 42.8905C56.125 43.1772 55.9 43.4502 55.9 43.4967C55.9 43.5435 55.6412 43.658 55.325 43.7512C54.4317 44.015 53.7032 44.313 53.623 44.4477C53.5827 44.515 53.325 44.595 53.05 44.6255C52.5817 44.677 52.32 44.647 51.125 44.4035C50.8637 44.3502 50.29 44.2577 49.85 44.198C48.3917 43.9997 46.7367 43.582 46.611 43.3805C46.241 42.7882 46.3397 42.3627 46.9922 41.739C48.3505 40.4402 48.3487 40.4415 49.1747 40.2572C49.601 40.162 50.04 40.047 50.15 40.0015C50.4947 39.859 51.2792 39.6765 51.8762 39.6C52.1917 39.5595 52.4725 39.5205 52.5 39.5135C52.5275 39.5062 53.045 39.5465 53.65 39.6027ZM93.3725 40.049C93.197 40.6202 93.351 41.1372 93.6802 41.0832C93.7737 41.0677 93.9032 41.0885 93.968 41.1295C94.033 41.1702 94.1187 41.1507 94.1585 41.0865C94.2062 41.009 94.1872 40.9962 94.1025 41.0487C94.0162 41.102 93.9907 41.0822 94.0245 40.9892C94.0522 40.9127 94.1312 40.8635 94.2002 40.8795C94.2815 40.8985 94.3067 40.837 94.272 40.7042C94.2427 40.592 94.2595 40.5252 94.3092 40.556C94.3592 40.5867 94.4 40.4745 94.4 40.3062C94.4 40.138 94.3522 40.0002 94.294 40.0002C94.2357 40.0002 94.2092 39.966 94.2352 39.9242C94.329 39.7725 94.0355 39.5192 93.7835 39.5345C93.5655 39.5477 93.5017 39.6277 93.3725 40.049ZM65.3265 46.2895C64.4412 46.3625 64.0672 46.5347 64.565 46.6405C65.0182 46.7365 67.9267 46.7587 68.1765 46.668C68.9012 46.405 66.9955 46.1517 65.3265 46.2895ZM38.2445 49.4495L37.95 49.575L38.2092 49.6445C38.352 49.6827 38.622 49.6742 38.8092 49.6257L39.15 49.5375L38.8445 49.4307C38.618 49.3517 38.4627 49.3567 38.2445 49.4495ZM53.4 49.9815C53.4 50.0262 53.1652 50.1652 52.8785 50.2905C52.3 50.543 52.3325 50.6167 53.0982 50.7887C53.436 50.8645 53.5785 50.8535 53.7562 50.737L53.983 50.5885L53.7665 50.2485C53.5597 49.924 53.4 49.8075 53.4 49.9815ZM36.375 50.376C36.2787 50.3975 36.2 50.4737 36.2 50.546C36.2 50.739 36.508 50.7845 36.85 50.6417C37.2017 50.4947 36.8147 50.2782 36.375 50.376ZM56.25 51.3687L55.95 51.5415L56.25 51.609C56.6375 51.6962 58.2612 51.6965 58.65 51.6092L58.95 51.542L58.7 51.401C58.3005 51.176 56.6237 51.154 56.25 51.3687ZM50.3542 51.4932C50.3227 51.5445 50.3447 51.6162 50.4037 51.6525C50.5525 51.7445 51.7 51.601 51.7 51.4905C51.7 51.3707 50.4282 51.3735 50.3542 51.4932ZM48.55 52.5002C48.2067 52.5617 48.253 52.574 48.875 52.586C49.3012 52.5945 49.6 52.559 49.6 52.5002C49.6 52.39 49.1662 52.39 48.55 52.5002ZM33.3685 53.3057C33.1807 53.525 33.221 53.7002 33.459 53.7002C33.648 53.7002 33.7417 53.4572 33.6297 53.2572C33.554 53.1217 33.5207 53.128 33.3685 53.3057ZM39.3172 53.4292C39.2377 53.5252 39.2592 53.5892 39.4005 53.6772C39.6142 53.811 39.7545 53.6867 39.662 53.4455C39.593 53.2657 39.4582 53.2595 39.3172 53.4292ZM32.417 54.3752C32.3675 54.4715 32.347 54.6177 32.3715 54.7002C32.5007 55.137 32.5177 55.1465 32.6415 54.8502C32.7695 54.543 32.7435 54.2002 32.5917 54.2002C32.5452 54.2002 32.4665 54.279 32.417 54.3752ZM38.469 54.2645C38.3637 54.3697 38.3867 54.9002 38.4965 54.9002C38.6955 54.9002 38.8292 54.4867 38.6787 54.3362C38.6015 54.2587 38.507 54.2265 38.469 54.2645ZM31.4575 56.367C31.4222 56.4587 31.44 56.5802 31.4967 56.637C31.5677 56.708 31.6 56.656 31.6 56.4702C31.6 56.1617 31.55 56.1255 31.4575 56.367ZM37.4507 56.3982C37.416 56.507 37.4342 56.6757 37.4907 56.7732C37.575 56.9177 37.5945 56.8812 37.597 56.5752C37.6002 56.1607 37.5467 56.0957 37.4507 56.3982ZM36.4802 58.3655C36.453 58.4687 36.4615 58.6402 36.4987 58.7465C36.561 58.924 36.5712 58.9205 36.6285 58.7025C36.6625 58.572 36.6542 58.4005 36.6097 58.3215C36.5445 58.2045 36.52 58.2127 36.4802 58.3655Z" fill="#CCCCCC"/>
<path fill-rule="evenodd" clip-rule="evenodd" d="M42.4 24.3513C41.7263 24.4685 41.1755 24.6033 40.1 24.9143C39.9075 24.97 39.48 25.0558 39.15 25.105C38.37 25.2215 37.9565 25.3453 36.7813 25.8138C36.2485 26.0263 35.746 26.2 35.6648 26.2C35.3798 26.2 34.567 26.6085 34.266 26.903C34.0988 27.0663 33.9068 27.2 33.8393 27.2C33.7718 27.2 33.7018 27.2338 33.6833 27.275C33.665 27.3163 33.3843 27.4785 33.0593 27.6358C32.7343 27.793 32.377 28.0068 32.2653 28.1108C32.1538 28.2148 32.0248 28.3 31.979 28.3C31.933 28.3 31.7053 28.471 31.4728 28.6798C31.2403 28.8888 30.915 29.1433 30.75 29.2455C30.585 29.3478 30.3825 29.5218 30.3 29.632C30.2175 29.7423 30.0168 29.949 29.854 30.0913C29.6913 30.2335 29.3908 30.5155 29.1865 30.7175C28.982 30.9198 28.727 31.132 28.6198 31.1895C28.5128 31.2468 28.334 31.4863 28.2228 31.7218C28.1113 31.9573 27.9145 32.2448 27.7853 32.3608C27.5223 32.5965 27.328 32.83 27.0875 33.2C26.998 33.3375 26.7668 33.617 26.573 33.821C26.3568 34.049 26.1523 34.4148 26.0423 34.771C25.844 35.4128 25.7973 35.5005 25.0341 36.6605C24.7408 37.1063 24.41 37.7553 24.299 38.103C24.038 38.9203 23.678 39.3988 23.32 39.404C23.0071 39.4085 21.6201 39.7038 20.7501 39.951C20.4201 40.0448 20.0028 40.1573 19.8228 40.2008C19.3856 40.3065 19.1361 40.4885 18.6001 41.0925C18.3526 41.3715 17.9363 41.8295 17.6751 42.1108C17.4138 42.3918 17.2001 42.706 17.2001 42.8088C17.2001 42.9933 17.0116 43.548 16.7386 44.1663C16.3686 45.0043 16.4856 46.89 16.9638 47.7993C17.0938 48.0463 17.2001 48.3083 17.2001 48.3813C17.2001 48.5715 18.0326 49.7083 18.3673 49.9755C19.0296 50.5035 19.2816 50.6715 19.8328 50.9528C20.1533 51.1163 20.4946 51.3235 20.5913 51.4135C20.6878 51.5033 20.9656 51.6098 21.2083 51.6503C21.9886 51.7798 22.8811 52.244 22.9711 52.567C23.1183 53.0948 23.0678 88.1753 22.9191 88.8C22.8471 89.1025 22.7658 89.485 22.7386 89.65C22.6333 90.2893 22.5943 90.387 22.425 90.4345C22.283 90.4743 22.4818 90.4635 22.9143 90.4083C23.0093 90.396 23.1063 90.1023 23.1643 89.65C23.1925 89.43 23.2576 89.086 23.3088 88.8858C23.5216 88.0545 23.4718 52.6748 23.2573 52.2768C23.0661 51.9215 22.4136 51.6 21.8841 51.6C21.7778 51.6 21.5756 51.4848 21.4346 51.3438C21.2043 51.1133 20.2363 50.6003 20.0316 50.6C19.9868 50.5998 19.8151 50.4883 19.6501 50.3518C19.4851 50.2155 19.3051 50.0673 19.2501 50.0223C19.1951 49.9773 18.9701 49.8693 18.7501 49.7825C18.4288 49.6558 18.3251 49.5485 18.2228 49.2375C18.1526 49.0243 18.0131 48.7808 17.9123 48.6958C16.8746 47.8215 16.8918 43.6738 17.9381 42.5903C18.0546 42.4695 18.2633 42.164 18.4018 41.9115C18.5403 41.6588 18.7358 41.4363 18.8361 41.417C19.0858 41.3688 19.3586 41.079 19.4331 40.7823C19.5023 40.5063 20.3843 40.3063 22.4501 40.0978C23.0001 40.0423 23.526 39.973 23.6188 39.9438C23.8548 39.8693 24.4 39.0163 24.4 38.7213C24.4 38.5708 24.5318 38.3565 24.7431 38.1628C24.9318 37.99 25.2248 37.5788 25.394 37.2493C25.5635 36.9198 25.7913 36.5375 25.9003 36.4C26.0843 36.1683 26.213 35.7175 26.3663 34.77C26.4163 34.461 26.4958 34.3553 26.792 34.204C26.9925 34.1018 27.2205 33.8903 27.2985 33.734C27.3768 33.5778 27.5778 33.315 27.7453 33.15C27.9131 32.985 28.1581 32.6475 28.2901 32.4C28.4223 32.1525 28.6698 31.8375 28.84 31.7C29.1328 31.464 29.3298 31.2673 30.3328 30.2103C30.5623 29.9685 30.9975 29.6085 31.3 29.4103C31.9013 29.0165 32.0006 28.9293 32.1501 28.664C32.2721 28.4478 32.5803 28.2828 33.2893 28.055C33.5858 27.9598 33.9455 27.7733 34.0883 27.6408C34.231 27.5085 34.5058 27.3253 34.699 27.234C34.892 27.1428 35.1625 26.9445 35.3 26.7938C35.5083 26.5655 35.7318 26.4833 36.6403 26.3015C37.2398 26.1815 37.9598 25.9788 38.2403 25.851C38.7178 25.6333 39.0725 25.5525 40.7 25.291C41.0575 25.2335 41.47 25.1643 41.6165 25.1373C41.7633 25.11 42.0333 24.9443 42.2165 24.769L42.55 24.45H48.0668C53.552 24.45 53.585 24.4513 53.8168 24.6625C54.1753 24.989 54.3958 25.0715 55.1 25.1425C56.0883 25.2423 57.6 25.5148 57.6 25.5935C57.6 25.7593 58.4155 26.0998 58.9588 26.1608C59.284 26.1973 59.595 26.26 59.65 26.2998C59.705 26.3398 59.9173 26.398 60.1215 26.4293C60.3648 26.4665 60.6163 26.6095 60.8498 26.8433C61.046 27.0395 61.27 27.2 61.3475 27.2C61.5388 27.2 62.1953 27.5855 62.4908 27.8713C62.623 27.9993 62.848 28.1293 62.9908 28.1603C63.532 28.2773 63.8143 28.4373 63.9533 28.7063C64.0323 28.859 64.244 29.0853 64.4235 29.2085C64.603 29.332 64.8453 29.538 64.9618 29.6665C65.078 29.795 65.2153 29.9 65.2665 29.9C65.3618 29.9 65.9853 30.4785 66.3555 30.9103C66.996 31.6573 67.9123 32.3765 68.3028 32.4388C68.526 32.4745 68.808 32.555 68.9293 32.6175C69.419 32.87 69.5078 32.9 69.7638 32.9C70.053 32.9 71.4073 33.1438 72.05 33.3115C73.0333 33.568 74.3453 34.6088 74.7938 35.488C74.914 35.7238 75.1428 35.9913 75.302 36.0828C75.7745 36.3538 75.8955 40.219 75.4455 40.6688C75.3503 40.764 75.207 40.9985 75.127 41.1895C75.0473 41.3805 74.7835 41.7243 74.541 41.9535C74.2985 42.1825 74.1 42.4218 74.1 42.485C74.1 42.5483 74.061 42.6 74.0133 42.6C73.9655 42.6 73.8095 42.7768 73.6665 42.993C73.5235 43.209 73.2945 43.4903 73.1578 43.618C72.8148 43.9378 72.6 44.8443 72.6 45.971C72.6 46.8135 72.5208 47.0763 72.35 46.8C72.316 46.745 72.1165 46.7 71.9065 46.7C71.3358 46.7 70.9363 46.5985 70.7225 46.3995C70.2275 45.9383 69.4618 45.7603 67.475 45.6445C66.8288 45.6068 66.3 45.5365 66.3 45.488C66.3 45.4395 66.2128 45.4 66.106 45.4C65.9993 45.4 65.884 45.355 65.85 45.3C65.768 45.1673 64.4298 45.1708 64.3475 45.304C64.3123 45.3613 64.0978 45.5253 63.8713 45.6683C62.3275 46.6428 63.1585 47.3263 66.0273 47.4415C67.434 47.498 67.5303 47.5155 68.0415 47.804C68.3523 47.9793 68.8008 48.1333 69.106 48.1693C69.5623 48.2233 69.6915 48.292 70.0573 48.6738C70.371 49.001 70.6323 49.1618 71.0653 49.2935C71.544 49.439 71.6758 49.528 71.7925 49.7845C71.871 49.9568 72.0173 50.1238 72.1175 50.1555C72.218 50.1875 72.3 50.2555 72.3 50.3068C72.3 50.358 72.3675 50.4 72.45 50.4C72.6408 50.4 72.624 48.7245 72.6488 70.2C72.6728 90.9063 72.6558 90.5 73.5083 90.5C73.718 90.5 73.7455 90.7798 73.55 90.9235C73.3965 91.0363 73.622 91.015 73.8 90.9C73.8948 90.8388 73.9053 90.8025 73.8283 90.8015C73.7583 90.8008 73.7323 90.7325 73.767 90.6415C73.8165 90.513 73.8455 90.5083 73.9215 90.6165C73.996 90.7228 74.007 90.7193 73.975 90.6C73.9528 90.5175 73.8143 90.4358 73.6673 90.4183C73.4595 90.3938 73.4 90.3325 73.4 90.1433C73.4 89.8345 73.401 89.8398 73.2348 89.2798C73.1178 88.8858 73.0915 85.727 73.0725 69.7798L73.05 50.75L72.8188 50.2808C72.5248 49.6838 71.9643 49.1053 71.395 48.8113C71.1503 48.685 70.86 48.5018 70.75 48.4043C70.4293 48.12 69.6783 47.7255 69.3128 47.6493C69.127 47.6105 68.824 47.4893 68.6388 47.3803C68.3573 47.214 68.0128 47.167 66.5263 47.0918C64.4945 46.9893 64.3415 46.965 64 46.694L63.75 46.4955L64.0963 46.1978C64.7833 45.607 69.1265 45.947 69.9 46.652C70.0483 46.7873 70.455 46.952 70.9 47.0573C71.4403 47.185 71.7598 47.3278 72.043 47.5673C72.677 48.104 72.8575 47.901 72.9475 46.55C73.092 44.3785 73.117 44.2903 73.7715 43.6178C73.842 43.5453 73.9 43.451 73.9 43.4088C73.9 43.3665 74.0913 43.1265 74.325 42.8755C74.5588 42.6245 74.9 42.2573 75.083 42.0595C75.2663 41.8618 75.4528 41.7 75.4975 41.7C75.542 41.7 75.6318 41.4188 75.697 41.075C75.762 40.7313 75.8785 40.1125 75.9555 39.7C76.3558 37.5638 75.6025 34.9098 74.4123 34.2618C74.323 34.213 74.0373 33.9543 73.7773 33.6868C73.5173 33.419 73.2308 33.2 73.1408 33.2C73.0508 33.2 72.6333 33.0355 72.2135 32.8343C71.5105 32.4975 71.351 32.4623 70.2 32.3898C68.683 32.2943 68.2118 32.185 67.95 31.8688C67.601 31.4468 67.427 31.2573 67.1348 30.9805C66.9783 30.8325 66.805 30.6665 66.75 30.612C66.1018 29.9688 65.2515 29.2 65.1883 29.2C65.1443 29.2 64.9415 29.02 64.738 28.8C64.5345 28.58 64.3113 28.4 64.2423 28.4C64.1733 28.4 64.1018 28.3663 64.0833 28.325C64.0028 28.1435 62.3045 27.1133 62.0695 27.1035C62.0253 27.1015 61.8453 26.9655 61.6695 26.8008C61.4718 26.6158 61.083 26.422 60.65 26.2925C60.265 26.1775 59.77 26.0005 59.55 25.8995C58.9043 25.603 57.5015 25.1 57.3198 25.1C57.2278 25.1 56.4993 24.9433 55.7013 24.7518C54.903 24.5603 54.058 24.3578 53.8235 24.3018C53.1648 24.1445 43.345 24.1873 42.4 24.3513ZM62.8 33.3293C62.5525 33.3873 62.3275 33.4653 62.3 33.5025C62.2725 33.54 61.9575 33.5963 61.6 33.6275C60.8423 33.6935 60.06 34.3713 59.8213 35.1685C59.666 35.6868 59.662 37.6415 59.8158 37.9315C59.934 38.155 60.3988 38.5998 60.5143 38.6C60.5495 38.6 60.6038 38.7013 60.6348 38.825C60.8058 39.5058 62.939 39.9958 63.8 39.552C63.9375 39.4813 64.2103 39.3448 64.4063 39.249C65.8868 38.5248 66.7068 36.0705 65.7945 35.094C65.6263 34.9143 65.4265 34.6178 65.3505 34.4358C65.198 34.0705 64.7235 33.7335 64.2315 33.6405C64.0565 33.6073 63.8358 33.4948 63.741 33.39C63.5515 33.1808 63.4603 33.1748 62.8 33.3293ZM64.0388 33.949C65.6575 34.7148 66.1073 37.2855 64.809 38.35C64.6748 38.46 64.486 38.6258 64.3893 38.7183C63.088 39.964 60.461 39.0453 60.0335 37.1953C59.789 36.1368 60.404 34.498 61.2 34.086C62.0168 33.6635 63.3038 33.6013 64.0388 33.949ZM35.093 35.837C34.546 35.9723 34.1 36.2488 34.1 36.4523C34.1 36.5335 34.0598 36.6 34.0103 36.6C33.8518 36.6 33.2918 37.1365 32.967 37.6C32.3615 38.4633 32.5716 40.5108 33.3413 41.2508C33.456 41.361 33.618 41.5838 33.701 41.7458C34.007 42.342 34.3758 42.451 36.05 42.441C37.7673 42.4308 38.042 42.3465 38.4465 41.7055C38.5815 41.4918 38.7413 41.2863 38.8018 41.249C38.8623 41.2115 39.0248 40.9265 39.1633 40.6155C39.3018 40.3045 39.481 39.9138 39.5613 39.7475C39.8263 39.1985 39.448 38.0375 38.7833 37.359C38.5725 37.144 38.4 36.9263 38.4 36.8753C38.4 36.1168 36.4435 35.5025 35.093 35.837ZM37.345 36.5348C37.803 36.7775 38.0045 36.9608 38.2208 37.3313C38.375 37.5958 38.6305 37.9505 38.7885 38.1195C39.2775 38.6428 39.2925 39.712 38.818 40.2348C38.7255 40.3368 38.5113 40.6968 38.3415 41.035C37.8358 42.043 37.1913 42.2983 35.485 42.1668C34.44 42.0863 33.9285 41.7048 33.653 40.8C33.6113 40.6625 33.4988 40.46 33.4028 40.35C32.7965 39.6538 32.805 38.3388 33.4195 37.7883C33.5188 37.6993 33.6 37.5768 33.6 37.5158C33.6 37.306 34.3173 36.7528 34.8333 36.5643C35.1175 36.4605 35.3928 36.336 35.445 36.2878C35.6748 36.0755 36.739 36.2138 37.345 36.5348ZM51.5125 38.1143C51.0518 38.1623 50.4803 38.2878 50.2425 38.393C50.0045 38.4983 49.5595 38.6158 49.2538 38.6538C48.9478 38.692 48.6728 38.763 48.6428 38.8118C48.6128 38.8603 48.5055 38.9 48.4045 38.9C48.3035 38.9 48.0838 39.056 47.9165 39.2465C47.749 39.4373 47.4858 39.6245 47.331 39.6628C47.0418 39.7345 46.2763 40.1903 46.216 40.3268C46.1975 40.369 46.13 40.459 46.066 40.5268C45.2848 41.3563 45.4945 44.3878 46.334 44.3978C46.4353 44.399 46.6895 44.5465 46.8988 44.7258C47.3823 45.1395 48.0623 45.3538 50 45.7023C51.6435 45.998 51.8525 46.1698 51.9448 47.3C52.1395 49.6795 52.153 49.4315 51.81 49.7745C51.64 49.9448 51.3743 50.1118 51.2198 50.1458C51.0653 50.1795 50.8753 50.2958 50.7973 50.4038C50.7195 50.5118 50.596 50.6 50.523 50.6C50.2918 50.6 49.7945 50.902 49.4618 51.2445C49.0913 51.626 48.9248 51.669 47.5 51.75C45.434 51.8675 44.811 52.1445 45.1478 52.7958C45.2895 53.0698 46.5368 53.7 46.9373 53.7C47.0203 53.7 47.1198 53.751 47.1583 53.8133C47.3473 54.119 49.976 53.4383 50.455 52.9595C51.223 52.1915 51.9325 52.1105 57.05 52.2083C59.5633 52.2563 60.4 52.0865 60.4 51.5288C60.4 51.475 60.4903 51.3493 60.6008 51.2493C61.5575 50.3835 60.109 49.4165 58.718 49.9925C58.4775 50.0923 58.174 50.1088 57.5705 50.0553C57.1193 50.015 56.2775 49.952 55.7 49.9153C54.1403 49.8155 54.1998 49.8935 54.2015 47.951C54.2035 45.7708 54.276 45.5425 55.05 45.2748C55.3725 45.1633 55.7858 44.9358 55.9688 44.7693C56.1518 44.6028 56.5218 44.389 56.7913 44.294C57.3628 44.0928 57.9663 43.4898 58.2195 42.867C58.5125 42.1465 58.368 39.8393 58.0228 39.7243C57.9775 39.7093 57.7085 39.4755 57.425 39.2053C57.0003 38.8 56.8253 38.7025 56.4298 38.65C56.166 38.615 55.86 38.5495 55.75 38.5045C55.1768 38.2703 52.9805 37.9433 52.45 38.0133C52.395 38.0208 51.973 38.066 51.5125 38.1143ZM55.25 38.817C55.8833 38.9338 56.9 39.355 56.9 39.5005C56.9 39.5478 56.996 39.617 57.113 39.6543C57.7845 39.8673 58.1153 40.5093 58.1118 41.5935C58.1078 42.8565 57.494 43.5603 55.5905 44.4843C53.7395 45.3828 53.7038 45.4468 53.7015 47.8738C53.7 49.6195 53.691 49.5853 54.2895 50.167C54.4613 50.334 54.6455 50.4003 54.9395 50.4005C55.1653 50.4008 55.5273 50.4503 55.7438 50.5105C57.16 50.9038 58.8235 50.8775 59.1183 50.4573C59.1558 50.4038 59.347 50.36 59.5433 50.36C59.9618 50.36 60.1843 50.526 60.0273 50.7208C59.97 50.7918 59.8925 50.9933 59.855 51.168C59.6685 52.041 58.0165 52.2013 54.9 51.6488C53.266 51.3593 53.327 51.3575 52.15 51.7295C51.545 51.9205 50.8588 52.129 50.625 52.1925C50.3865 52.2573 50.2 52.3685 50.2 52.4458C50.2 53.0845 47.109 53.36 46.1603 52.806L45.7075 52.5415L46.0288 52.3778C46.258 52.261 46.7225 52.2 47.65 52.1653C48.847 52.1203 49.7 51.967 49.7 51.7973C49.7 51.579 50.4115 51.0073 50.7618 50.9438C51.2818 50.8498 51.4438 50.7578 52.1683 50.1445C52.5083 49.8568 52.835 49.605 52.8948 49.585C53.0495 49.5335 53.149 48.266 53.0248 47.9295C52.968 47.7758 52.863 47.3855 52.7918 47.062C52.7203 46.7388 52.5825 46.3788 52.4855 46.262C52.3885 46.1455 52.2058 45.924 52.0795 45.7698C51.7915 45.4183 51.3998 45.3218 49.75 45.1965C48.5568 45.1058 48.409 45.0723 47.95 44.787C47.675 44.6163 47.184 44.3913 46.8588 44.2873C46.1658 44.0655 45.988 43.8575 45.8475 43.1045C45.5903 41.7245 46.2248 40.5983 47.6588 39.8903C48.038 39.7033 48.407 39.495 48.4788 39.4278C48.5503 39.3603 48.7758 39.2638 48.9795 39.2133C49.4553 39.095 49.7648 39.0115 50.2 38.884C51.1398 38.6088 53.9213 38.5718 55.25 38.817ZM39.7 48.0615C39.3425 48.1385 38.87 48.2885 38.65 48.3948C38.43 48.5013 38.0598 48.6173 37.8273 48.6525C37.3393 48.7268 36.792 49.0603 36.656 49.3665C36.5893 49.5165 36.439 49.5948 36.139 49.636C35.585 49.712 34.8835 50.1083 34.7195 50.4378C34.6478 50.582 34.527 50.7 34.4513 50.7C34.2943 50.7 33.9 51.2123 33.9 51.4165C33.9 51.5518 33.7143 51.698 33.1501 52.007C32.9851 52.0975 32.801 52.2675 32.7413 52.385C32.6813 52.5025 32.542 52.6775 32.4318 52.7743C32.1315 53.0375 31.7355 53.71 31.6498 54.1028C31.6075 54.2965 31.4303 54.5825 31.2485 54.75C31.0235 54.9578 30.8718 55.2345 30.7558 55.65C30.6638 55.98 30.5525 56.3175 30.509 56.4C30.4655 56.4825 30.4648 56.64 30.5078 56.75C30.5508 56.86 30.589 57.0953 30.593 57.2725C30.6048 57.8125 31.559 58.1483 31.9595 57.753C32.099 57.6158 32.3641 57.0283 32.4383 56.6923C32.4703 56.5468 32.6078 56.383 32.7533 56.3168C32.911 56.2448 33.1086 55.9948 33.2611 55.6745C33.3983 55.386 33.7083 54.88 33.9503 54.55C34.192 54.22 34.3923 53.9148 34.395 53.8715C34.4103 53.6335 35.8285 52.3985 36.4223 52.1063C36.7853 51.9275 37.1688 51.701 37.274 51.6028C37.3793 51.5048 37.5645 51.393 37.686 51.3545C37.95 51.2708 38.4 50.8705 38.4 50.7195C38.4 50.5673 38.581 50.4735 39.0463 50.385C41.449 49.9275 41.8698 49.775 41.9975 49.315C42.3138 48.1765 41.4233 47.6908 39.7 48.0615ZM64.1383 49.0568C63.7548 49.5595 63.874 49.8623 64.5975 50.221C64.8978 50.37 65.3035 50.647 65.4988 50.8365C65.694 51.026 66.0555 51.2903 66.302 51.4238C67.3415 51.9865 67.559 52.1233 67.725 52.3175C67.8213 52.43 67.9 52.6048 67.9 52.706C67.9 52.905 68.3095 53.4 68.4743 53.4C68.53 53.4 68.636 53.5463 68.7098 53.725C68.7835 53.9038 69.0028 54.23 69.197 54.45C69.6218 54.9313 69.753 55.1578 69.8423 55.5653C70.0658 56.5825 72.3 56.342 72.3 55.301C72.3 54.7345 72.035 54.288 71.6203 54.1565C71.4993 54.118 71.4 54.0543 71.4 54.015C71.4 53.9423 71.2088 53.686 70.625 52.9763C70.4463 52.759 70.3 52.5108 70.3 52.425C70.3 52.2225 69.8255 51.6003 69.67 51.599C69.604 51.5985 69.4733 51.4153 69.3795 51.192C69.2623 50.913 69.1155 50.7508 68.911 50.6735C68.747 50.6118 68.5553 50.4533 68.4848 50.3215C68.3435 50.0575 67.831 49.7635 67.3203 49.6533C67.1388 49.614 66.9368 49.496 66.8713 49.391C66.8055 49.286 66.7198 49.2 66.6805 49.2C66.641 49.2 66.443 49.0875 66.2405 48.95C65.6113 48.523 64.5023 48.5793 64.1383 49.0568ZM39.6873 49.0105C39.9593 49.1053 40.2843 49.4568 40.183 49.5465C40.102 49.6185 38.5603 50.1 38.4108 50.1C38.319 50.1 38.0918 50.2615 37.9058 50.4588C37.7198 50.656 37.4735 50.8573 37.3588 50.9058C37.244 50.9545 36.925 51.1293 36.65 51.2943C36.375 51.4593 35.937 51.7083 35.6768 51.848C35.4165 51.9875 35.124 52.224 35.0268 52.3738C34.9295 52.5235 34.6813 52.8103 34.475 53.0113C34.2688 53.2123 34.1 53.4263 34.1 53.4873C34.1 53.6098 33.8478 53.9425 33.5675 54.1893C33.4673 54.2778 33.2613 54.5975 33.1095 54.9C32.7095 55.6983 32.581 55.8818 32.3845 55.933C32.288 55.9583 32.1773 56.1075 32.1383 56.2645C32.0015 56.8155 31.604 57.3043 31.3973 57.175C30.8863 56.856 30.969 55.8563 31.5608 55.2013C31.7473 54.9948 31.9001 54.7835 31.9001 54.7318C31.9001 54.5175 32.3563 53.7175 32.7638 53.2173C33.0038 52.9228 33.2 52.647 33.2 52.6048C33.2 52.5625 33.3965 52.4235 33.637 52.296C33.882 52.166 34.15 51.923 34.247 51.7423C34.3425 51.5653 34.5733 51.3383 34.7603 51.2375C34.947 51.1368 35.1 51.019 35.1 50.9755C35.1 50.776 35.8193 50.2318 36.3083 50.061C36.6063 49.957 36.9873 49.7368 37.155 49.5718C37.6898 49.0453 38.9718 48.7613 39.6873 49.0105ZM65.8098 49.2718C65.9695 49.366 66.1265 49.526 66.1588 49.6273C66.2273 49.8433 66.5648 49.995 67.2263 50.1075C67.7443 50.1955 67.9453 50.3428 68.099 50.7475C68.157 50.9 68.3233 51.0533 68.4953 51.1133C68.6585 51.1703 68.816 51.2918 68.8453 51.3833C68.9143 51.598 69.2965 52.0188 69.5515 52.1603C69.6608 52.221 69.781 52.3785 69.8188 52.5103C69.8568 52.6423 69.9515 52.9733 70.0295 53.2458C70.1075 53.5185 70.2565 53.7885 70.3608 53.8458C70.6615 54.0115 71.1 54.5203 71.1 54.704C71.1 54.7965 71.2093 55.033 71.3428 55.2298L71.5855 55.5875L71.0503 55.6543C70.3053 55.7473 70.341 55.79 70.121 54.55C70.0645 54.2313 69.9853 54.1195 69.7313 54C69.556 53.9175 69.3213 53.689 69.2095 53.4923C69.098 53.2955 68.876 53.0255 68.7163 52.8923C68.5565 52.759 68.33 52.4385 68.2128 52.18C67.9678 51.6398 67.5518 51.2938 66.8788 51.0708C66.384 50.907 66.0753 50.67 65.9683 50.3728C65.9333 50.2753 65.8248 50.1693 65.7273 50.137C65.6298 50.105 65.4143 50.0188 65.2485 49.9458C65.0828 49.8728 64.824 49.7663 64.6735 49.709C64.2298 49.5403 64.4155 49.3288 65.15 49.1673C65.491 49.0923 65.5113 49.0955 65.8098 49.2718ZM41.4 51.076C41.3175 51.103 41.16 51.2255 41.05 51.3483C40.94 51.471 40.7375 51.602 40.6 51.6393C39.8818 51.834 39.6 51.9403 39.6 52.016C39.6 52.0623 39.5203 52.1 39.4228 52.1C39.2328 52.1 38.1 53.212 38.1 53.3985C38.1 53.4603 37.9875 53.6763 37.85 53.8785C37.7125 54.0808 37.6 54.323 37.6 54.4165C37.6 54.51 37.5123 54.6145 37.405 54.6485C37.1755 54.7213 36.8753 55.1885 36.6978 55.75C36.628 55.97 36.54 56.1725 36.5018 56.2C35.8395 56.6788 35.5013 59.0103 35.977 59.8178C36.3608 60.4695 37.3338 60.162 37.7478 59.258C38.0023 58.7025 38.4 57.1738 38.4 56.7515C38.4 56.5943 38.5088 56.4258 38.7028 56.2823C38.8693 56.1593 39.1175 55.8765 39.2545 55.6543C39.6138 55.0715 40.4178 54.0905 40.6423 53.961C40.7478 53.9 40.9318 53.7695 41.0508 53.6713C41.1698 53.573 41.4208 53.4108 41.6085 53.311C42.4548 52.8618 42.2618 50.794 41.4 51.076ZM41.637 52.125C41.7668 52.6095 41.7123 52.6925 41.0723 52.9828C40.691 53.1555 40.37 53.381 40.2548 53.557C40.1503 53.7163 39.9225 53.9823 39.7488 54.1483C39.5748 54.3143 39.3463 54.585 39.2413 54.75C38.9738 55.1695 38.7978 55.387 38.4388 55.7423C38.2398 55.9388 38.084 56.2308 38.0078 56.55C37.942 56.825 37.8413 57.23 37.7838 57.45C37.6315 58.0323 36.8895 59.5585 36.7013 59.676C35.952 60.144 35.9625 57.8685 36.7135 57.0623C36.816 56.9523 36.9 56.792 36.9 56.7063C36.9003 56.3655 37.3318 55.435 37.6078 55.1808C37.7685 55.0325 37.9 54.8403 37.9 54.7538C37.9 54.3703 38.8543 53.2228 39.65 52.649C39.87 52.4903 40.077 52.3215 40.11 52.2738C40.143 52.226 40.4243 52.1523 40.735 52.1103C41.0455 52.068 41.3298 52.0035 41.3665 51.9668C41.4878 51.8455 41.5758 51.897 41.637 52.125Z" fill="#CCCCCC"/>
<path d="M109.376 53.656C109.376 48.664 110.456 44.224 112.616 40.336C114.776 36.4 117.776 33.352 121.616 31.192C125.504 28.984 129.896 27.88 134.792 27.88C140.792 27.88 145.928 29.464 150.2 32.632C154.472 35.8 157.328 40.12 158.768 45.592H145.232C144.224 43.48 142.784 41.872 140.912 40.768C139.088 39.664 137 39.112 134.648 39.112C130.856 39.112 127.784 40.432 125.432 43.072C123.08 45.712 121.904 49.24 121.904 53.656C121.904 58.072 123.08 61.6 125.432 64.24C127.784 66.88 130.856 68.2 134.648 68.2C137 68.2 139.088 67.648 140.912 66.544C142.784 65.44 144.224 63.832 145.232 61.72H158.768C157.328 67.192 154.472 71.512 150.2 74.68C145.928 77.8 140.792 79.36 134.792 79.36C129.896 79.36 125.504 78.28 121.616 76.12C117.776 73.912 114.776 70.864 112.616 66.976C110.456 63.088 109.376 58.648 109.376 53.656ZM184.596 79.576C180.66 79.576 177.108 78.736 173.94 77.056C170.82 75.376 168.348 72.976 166.524 69.856C164.748 66.736 163.86 63.088 163.86 58.912C163.86 54.784 164.772 51.16 166.596 48.04C168.42 44.872 170.916 42.448 174.084 40.768C177.252 39.088 180.804 38.248 184.74 38.248C188.676 38.248 192.228 39.088 195.396 40.768C198.564 42.448 201.06 44.872 202.884 48.04C204.708 51.16 205.62 54.784 205.62 58.912C205.62 63.04 204.684 66.688 202.812 69.856C200.988 72.976 198.468 75.376 195.252 77.056C192.084 78.736 188.532 79.576 184.596 79.576ZM184.596 68.92C186.948 68.92 188.94 68.056 190.572 66.328C192.252 64.6 193.092 62.128 193.092 58.912C193.092 55.696 192.276 53.224 190.644 51.496C189.06 49.768 187.092 48.904 184.74 48.904C182.34 48.904 180.348 49.768 178.764 51.496C177.18 53.176 176.388 55.648 176.388 58.912C176.388 62.128 177.156 64.6 178.692 66.328C180.276 68.056 182.244 68.92 184.596 68.92ZM234.544 68.56V79H228.28C223.816 79 220.336 77.92 217.84 75.76C215.344 73.552 214.096 69.976 214.096 65.032V49.048H209.2V38.824H214.096V29.032H226.408V38.824H234.472V49.048H226.408V65.176C226.408 66.376 226.696 67.24 227.272 67.768C227.848 68.296 228.808 68.56 230.152 68.56H234.544ZM263.794 68.56V79H257.53C253.066 79 249.586 77.92 247.09 75.76C244.594 73.552 243.346 69.976 243.346 65.032V49.048H238.45V38.824H243.346V29.032H255.658V38.824H263.722V49.048H255.658V65.176C255.658 66.376 255.946 67.24 256.522 67.768C257.098 68.296 258.058 68.56 259.402 68.56H263.794ZM308.523 58.264C308.523 59.416 308.452 60.616 308.308 61.864H280.444C280.636 64.36 281.428 66.28 282.82 67.624C284.26 68.92 286.012 69.568 288.076 69.568C291.148 69.568 293.284 68.272 294.484 65.68H307.588C306.916 68.32 305.692 70.696 303.916 72.808C302.188 74.92 300.004 76.576 297.364 77.776C294.724 78.976 291.772 79.576 288.508 79.576C284.572 79.576 281.068 78.736 277.996 77.056C274.924 75.376 272.524 72.976 270.796 69.856C269.068 66.736 268.204 63.088 268.204 58.912C268.204 54.736 269.044 51.088 270.724 47.968C272.452 44.848 274.852 42.448 277.924 40.768C280.996 39.088 284.524 38.248 288.508 38.248C292.396 38.248 295.852 39.064 298.876 40.696C301.9 42.328 304.252 44.656 305.932 47.68C307.66 50.704 308.523 54.232 308.523 58.264ZM295.924 55.024C295.924 52.912 295.204 51.232 293.764 49.984C292.324 48.736 290.524 48.112 288.364 48.112C286.3 48.112 284.548 48.712 283.108 49.912C281.716 51.112 280.852 52.816 280.516 55.024H295.924ZM327.331 45.52C328.771 43.312 330.571 41.584 332.731 40.336C334.891 39.04 337.291 38.392 339.931 38.392V51.424H336.547C333.475 51.424 331.171 52.096 329.635 53.44C328.099 54.736 327.331 57.04 327.331 60.352V79H315.019V38.824H327.331V45.52Z" fill="#CCCCCC"/>
</svg>
