<svg width="116" height="32" viewBox="0 0 116 32" fill="none" xmlns="http://www.w3.org/2000/svg">
<g clip-path="url(#clip0)">
<path d="M22 2.2C22 0.986 21.014 0 19.8 0H2.2C0.986 0 0 0.986 0 2.2V29.8C0 31.014 0.986 32 2.2 32H19.8C21.014 32 22 31.014 22 29.8V2.2V2.2Z" fill="#CCCCCC"/>
<path d="M14.967 11.988C16.0716 11.988 16.967 11.0926 16.967 9.98804C16.967 8.88347 16.0716 7.98804 14.967 7.98804C13.8625 7.98804 12.967 8.88347 12.967 9.98804C12.967 11.0926 13.8625 11.988 14.967 11.988Z" fill="white"/>
<path d="M15.021 24.012C16.1256 24.012 17.021 23.1165 17.021 22.012C17.021 20.9074 16.1256 20.012 15.021 20.012C13.9164 20.012 13.021 20.9074 13.021 22.012C13.021 23.1165 13.9164 24.012 15.021 24.012Z" fill="white"/>
<path d="M7 24.012C8.10457 24.012 9 23.1165 9 22.012C9 20.9074 8.10457 20.012 7 20.012C5.89543 20.012 5 20.9074 5 22.012C5 23.1165 5.89543 24.012 7 24.012Z" fill="white"/>
<path d="M36.496 28.25C35.003 28.25 33.696 27.846 32.576 27.038C31.456 26.229 30.597 25.091 30 23.625L32.016 22.655C32.336 23.69 32.896 24.504 33.696 25.097C34.496 25.69 35.387 25.986 36.368 25.986C37.733 25.986 38.768 25.56 39.472 24.709C40.176 23.857 40.528 22.655 40.528 21.102V4.25H42.928V21.102C42.928 23.345 42.352 25.097 41.2 26.358C40.048 27.62 38.48 28.25 36.496 28.25V28.25Z" fill="#CCCCCC"/>
<path d="M53.5519 28.2499C52.1229 28.2499 50.8429 27.9049 49.7119 27.2149C48.5809 26.5249 47.6959 25.5599 47.0559 24.3209C46.4159 23.0809 46.0959 21.6839 46.0959 20.1319C46.0959 18.5789 46.4109 17.1939 47.0399 15.9759C47.6689 14.7569 48.5439 13.8029 49.6639 13.1129C50.7839 12.4229 52.0589 12.0779 53.4879 12.0779C54.9169 12.0779 56.1969 12.4229 57.3279 13.1129C58.4589 13.8029 59.3439 14.7629 59.9839 15.9919C60.6239 17.2209 60.944 18.6119 60.944 20.1639C60.944 21.7169 60.629 23.1079 60 24.3369C59.371 25.5659 58.4959 26.5249 57.3759 27.2149C56.2559 27.9049 54.9809 28.2499 53.5519 28.2499V28.2499ZM53.4879 26.2449C54.5119 26.2449 55.4239 25.9859 56.2239 25.4689C57.0239 24.9509 57.648 24.2289 58.096 23.3019C58.544 22.3739 58.7679 21.3289 58.7679 20.1639C58.7679 18.9999 58.544 17.9539 58.096 17.0269C57.648 16.0999 57.0239 15.3769 56.2239 14.8599C55.4239 14.3419 54.5119 14.0829 53.4879 14.0829C52.4849 14.0829 51.5889 14.3419 50.7999 14.8599C50.0109 15.3769 49.3919 16.0939 48.9439 17.0109C48.4959 17.9269 48.2719 18.9669 48.2719 20.1319C48.2719 21.3179 48.4959 22.3739 48.9439 23.3019C49.3919 24.2289 50.0109 24.9509 50.7999 25.4689C51.5889 25.9859 52.4849 26.2449 53.4879 26.2449Z" fill="#CCCCCC"/>
<path d="M72.592 12.595H74.8L69.36 28.25H66.96L61.552 12.595H63.824L68.24 25.372L72.592 12.595Z" fill="#CCCCCC"/>
<path d="M78.16 28.2499V12.5949H80.336V28.2499H78.16ZM79.248 9.65194C78.757 9.65194 78.347 9.47994 78.016 9.13494C77.685 8.78994 77.52 8.36894 77.52 7.87294C77.52 7.39894 77.685 6.99393 78.016 6.65993C78.347 6.32594 78.757 6.15894 79.248 6.15894C79.717 6.15894 80.123 6.32594 80.464 6.65993C80.805 6.99393 80.976 7.40993 80.976 7.90493C80.976 8.37993 80.805 8.78994 80.464 9.13494C80.123 9.47994 79.717 9.65194 79.248 9.65194Z" fill="#CCCCCC"/>
<path d="M98.992 12.5949V28.2499H96.816V25.5009C96.197 26.3639 95.44 27.0379 94.544 27.5229C93.648 28.0079 92.667 28.2499 91.6 28.2499C90.171 28.2499 88.891 27.9049 87.76 27.2149C86.629 26.5249 85.744 25.5659 85.104 24.3369C84.464 23.1079 84.144 21.7059 84.144 20.1319C84.144 18.5789 84.459 17.1939 85.088 15.9759C85.717 14.7569 86.592 13.8029 87.712 13.1129C88.832 12.4229 90.107 12.0779 91.536 12.0779C92.624 12.0779 93.621 12.3209 94.528 12.8059C95.435 13.2909 96.197 13.9759 96.816 14.8599V12.5949H98.992V12.5949ZM91.536 26.2449C92.56 26.2449 93.472 25.9859 94.272 25.4689C95.072 24.9509 95.696 24.2289 96.144 23.3019C96.592 22.3739 96.816 21.3289 96.816 20.1639C96.816 18.9999 96.592 17.9539 96.144 17.0269C95.696 16.0999 95.072 15.3769 94.272 14.8599C93.472 14.3419 92.56 14.0829 91.536 14.0829C90.533 14.0829 89.637 14.3419 88.848 14.8599C88.059 15.3769 87.44 16.0939 86.992 17.0109C86.544 17.9269 86.32 18.9669 86.32 20.1319C86.32 21.3179 86.544 22.3739 86.992 23.3019C87.44 24.2289 88.059 24.9509 88.848 25.4689C89.637 25.9859 90.533 26.2449 91.536 26.2449Z" fill="#CCCCCC"/>
<path d="M109.68 12.0779C110.725 12.0779 111.691 12.2939 112.576 12.7249C113.461 13.1559 114.165 13.7919 114.688 14.6329C115.211 15.4739 115.472 16.4659 115.472 17.6089V28.2499H113.296V18.5789C113.296 15.5819 111.973 14.0829 109.328 14.0829C107.792 14.0829 106.64 14.6329 105.872 15.7329C105.104 16.8329 104.72 18.3099 104.72 20.1639V28.2499H102.544V12.5949H104.72V15.1179C105.232 14.1479 105.909 13.3989 106.752 12.8699C107.595 12.3419 108.571 12.0779 109.68 12.0779V12.0779Z" fill="#CCCCCC"/>
</g>
<defs>
<clipPath id="clip0">
<rect width="115.472" height="32" fill="white"/>
</clipPath>
</defs>
</svg>
