<svg width="201" height="40" viewBox="0 0 201 40" fill="none" xmlns="http://www.w3.org/2000/svg">
<path d="M28.6774 15.4747C28.6774 31.8825 8.47291 31.3773 8.47291 31.3773L0 39.908C0 39.908 0 24.7234 0 11.4234L9.80572 0.0234375H9.82558C16.0661 0.220873 28.6774 0.264465 28.6774 15.4747Z" fill="#1890FF"/>
<path d="M9.82753 0V11.4231H0.00195312L9.80767 0.0230745L9.82753 0Z" fill="#005FB8"/>
<path d="M0.000261161 13.5074C0.000261161 12.81 0.000261161 12.1152 0.000261161 11.4229L9.82559 11.4254L0 13.5074" fill="#0074E0"/>
<path d="M56.6379 17.585C56.089 18.0473 55.339 18.2773 54.3876 18.2773H51.4778V13.219H54.3876C55.3245 13.219 56.0718 13.4285 56.6291 13.8497C57.1865 14.273 57.4637 14.9037 57.4637 15.7482C57.4637 16.5125 57.1893 17.1227 56.6379 17.585ZM58.5495 12.278C58.0825 11.865 57.5133 11.5486 56.8449 11.3267C56.1766 11.1089 55.4266 11 54.6034 11H49V25H51.4778V20.4984H54.306C55.091 20.4984 55.8293 20.3957 56.5211 20.1881C57.2129 19.9807 57.817 19.6787 58.3337 19.278C58.8472 18.8794 59.2558 18.3781 59.5535 17.7781C59.8511 17.1761 60 16.4837 60 15.6989C60 14.9798 59.8744 14.3326 59.6263 13.7573C59.3754 13.184 59.0164 12.6909 58.5495 12.278Z" fill="black"/>
<path d="M91.6406 17.585C91.0891 18.0473 90.3389 18.2773 89.3876 18.2773H86.4778V13.219H89.3876C90.3244 13.219 91.0716 13.4285 91.6289 13.8497C92.1865 14.273 92.4636 14.9037 92.4636 15.7482C92.4636 16.5125 92.1893 17.1227 91.6406 17.585ZM93.5492 12.278C93.0824 11.865 92.5161 11.5486 91.845 11.3267C91.1766 11.1089 90.4265 11 89.6035 11H84V25H86.4778V20.4984H89.3058C90.0911 20.4984 90.8293 20.3957 91.521 20.1881C92.2128 19.9807 92.8167 19.6787 93.3334 19.278C93.8469 18.8794 94.2557 18.3781 94.5534 17.7781C94.8511 17.1761 95 16.4837 95 15.6989C95 14.9798 94.8774 14.3326 94.6263 13.7573C94.3753 13.184 94.0162 12.6909 93.5492 12.278Z" fill="black"/>
<path d="M103.565 19.0376H110.947V16.8165H103.565V13.219H111.894V11H101V25H112V22.779H103.565V19.0376Z" fill="black"/>
<path d="M121.259 17.9383V13.219H124.585C125.438 13.219 126.101 13.4141 126.572 13.8107C127.044 14.2052 127.278 14.7928 127.278 15.5694C127.278 16.2906 127.036 16.8659 126.554 17.2953C126.071 17.7226 125.421 17.9383 124.604 17.9383H121.259ZM127.75 19.1301C128.128 18.8814 128.452 18.5793 128.722 18.2302C128.993 17.8747 129.206 17.4679 129.361 17.0076C129.515 16.5474 129.592 16.0255 129.592 15.4359C129.592 14.7578 129.483 14.1415 129.259 13.5867C129.038 13.0361 128.719 12.5697 128.306 12.1875C127.893 11.8075 127.387 11.5136 126.788 11.3061C126.189 11.1027 125.52 11 124.777 11H119V25H121.259V20.1183H124.119L127.315 25H130L126.5 19.6991C126.958 19.5635 127.374 19.3745 127.75 19.1301Z" fill="black"/>
<path d="M145.548 22.3422C144.923 22.6561 144.178 22.8149 143.314 22.8149C142.636 22.8149 142.008 22.6898 141.433 22.4395C140.857 22.1854 140.361 21.8417 139.94 21.4007C139.522 20.9657 139.195 20.4532 138.965 19.8673C138.737 19.2792 138.62 18.6516 138.62 17.9821C138.62 17.3107 138.737 16.685 138.965 16.105C139.195 15.523 139.522 15.0204 139.94 14.5874C140.361 14.1564 140.857 13.8147 141.433 13.5644C142.008 13.3102 142.636 13.185 143.314 13.185C144.125 13.185 144.85 13.3419 145.486 13.6498C146.123 13.9577 146.725 14.3649 147.294 14.8675L148.898 13.1075C148.559 12.7997 148.2 12.5156 147.823 12.2574C147.443 12.0011 147.029 11.7787 146.582 11.59C146.135 11.4032 145.644 11.2582 145.11 11.155C144.575 11.0536 143.982 11 143.334 11C142.25 11 141.26 11.1828 140.367 11.5502C139.473 11.9197 138.702 12.4203 138.053 13.0599C137.402 13.6975 136.897 14.4424 136.538 15.2926C136.181 16.1447 136 17.0525 136 18.0199C136 18.9992 136.184 19.9149 136.549 20.765C136.914 21.6152 137.42 22.3522 138.062 22.9779C138.705 23.6036 139.467 24.0982 140.346 24.4577C141.228 24.8193 142.189 25 143.232 25C143.895 25 144.499 24.9444 145.048 24.8351C145.597 24.7239 146.103 24.563 146.561 24.3524C147.023 24.1399 147.452 23.8876 147.852 23.5977C148.252 23.3095 148.635 22.9758 149 22.6025L147.394 21.0531C146.786 21.5954 146.17 22.0245 145.548 22.3422Z" fill="black"/>
<path d="M164.557 18.9346C164.557 20.2092 164.24 21.1662 163.609 21.8075C162.978 22.4548 162.111 22.7745 161.01 22.7745C159.895 22.7745 159.022 22.4407 158.391 21.7711C157.76 21.1014 157.443 20.1242 157.443 18.8355V11H155V18.9346C155 19.9341 155.138 20.8081 155.421 21.5648C155.7 22.3174 156.101 22.9525 156.622 23.4645C157.143 23.9743 157.772 24.3606 158.506 24.6155C159.241 24.8725 160.062 25 160.97 25C161.892 25 162.724 24.8725 163.465 24.6155C164.205 24.3606 164.836 23.9722 165.358 23.4543C165.879 22.9364 166.282 22.289 166.571 21.5141C166.856 20.7413 167 19.8411 167 18.8153V11H164.557V18.9346Z" fill="black"/>
<path d="M181.638 17.585C181.089 18.0473 180.338 18.2773 179.387 18.2773H176.474V13.219H179.387C180.324 13.219 181.072 13.4285 181.628 13.8497C182.184 14.273 182.463 14.9037 182.463 15.7482C182.463 16.5125 182.19 17.1227 181.638 17.585ZM183.549 12.278C183.083 11.865 182.514 11.5486 181.846 11.3267C181.173 11.1089 180.426 11 179.6 11H174V25H176.474V20.4984H179.303C180.091 20.4984 180.829 20.3957 181.52 20.1881C182.213 19.9807 182.817 19.6787 183.33 19.278C183.847 18.8794 184.252 18.3781 184.553 17.7781C184.851 17.1761 185 16.4837 185 15.6989C185 14.9798 184.875 14.3326 184.623 13.7573C184.373 13.184 184.016 12.6909 183.549 12.278Z" fill="black"/>
<path d="M200.704 19.4304C200.505 19.0068 200.218 18.6393 199.836 18.3197C199.455 18.004 198.976 17.7363 198.4 17.5146C197.822 17.2928 197.16 17.093 196.412 16.9113C195.733 16.7574 195.173 16.6056 194.731 16.4638C194.289 16.3199 193.941 16.1661 193.691 15.9963C193.438 15.8285 193.266 15.6467 193.172 15.4529C193.077 15.2571 193.03 15.0254 193.03 14.7517C193.03 14.2982 193.232 13.9127 193.637 13.595C194.045 13.2774 194.615 13.1196 195.348 13.1196C195.997 13.1196 196.64 13.2394 197.278 13.4792C197.916 13.7209 198.558 14.0665 199.211 14.52L200.552 12.71C199.819 12.1547 199.037 11.7292 198.204 11.4375C197.369 11.1438 196.43 11 195.386 11C194.681 11 194.032 11.0939 193.437 11.2817C192.843 11.4695 192.334 11.7372 191.91 12.0868C191.487 12.4384 191.153 12.8559 190.913 13.3433C190.67 13.8288 190.547 14.3721 190.547 14.9675C190.547 15.6028 190.653 16.1381 190.863 16.5796C191.073 17.0231 191.38 17.3967 191.781 17.7084C192.182 18.0201 192.679 18.2778 193.269 18.4854C193.86 18.6952 194.535 18.881 195.298 19.0488C195.965 19.2067 196.503 19.3544 196.918 19.4963C197.333 19.6402 197.657 19.794 197.898 19.9537C198.135 20.1156 198.298 20.2934 198.385 20.4892C198.473 20.683 198.517 20.9047 198.517 21.1504C198.517 21.6819 198.292 22.1034 197.836 22.413C197.383 22.7247 196.769 22.8805 195.997 22.8805C195.102 22.8805 194.302 22.7307 193.597 22.425C192.892 22.1194 192.196 21.6819 191.504 21.1104L190 22.8225C190.854 23.5637 191.781 24.1091 192.784 24.4666C193.786 24.8223 194.839 25 195.935 25C196.681 25 197.366 24.9101 197.988 24.7284C198.611 24.5466 199.144 24.2808 199.587 23.9313C200.032 23.5796 200.377 23.1522 200.626 22.6487C200.873 22.1434 201 21.5659 201 20.9187C201 20.3474 200.9 19.8499 200.704 19.4304Z" fill="black"/>
<path d="M68.66 19.4794L70.9615 13.9196L73.2818 19.4794H68.66ZM69.9065 11L64 25H66.4165L67.7972 21.6449H74.1451L75.5067 25H78L72.0931 11H69.9065Z" fill="black"/>
</svg>
