<svg width="150" height="30" viewBox="0 0 150 30" fill="none" xmlns="http://www.w3.org/2000/svg">
<path d="M0 18.2585L7.31322 25.5619H0V18.2585ZM0 16.4326L9.14153 25.5619H16.4547L0 9.12925V16.4326ZM0 7.3034L18.283 25.5619H25.5963L0 0V7.3034ZM9.14153 7.3034L27.4246 25.5619V18.2585L9.14153 0V7.3034ZM18.283 0V7.3034L27.4246 16.4326V9.12925L18.283 0Z" fill="#C4C4C4"/>
<path d="M43.8793 22.6405C42.0057 22.6405 40.2095 21.897 38.8858 20.5751L28.7175 10.4204V25.5618H43.8793V22.6405Z" fill="#C4C4C4"/>
<path d="M33.1055 22.6405C33.9133 22.6405 34.5681 21.9866 34.5681 21.1799C34.5681 20.3732 33.9133 19.7192 33.1055 19.7192C32.2977 19.7192 31.6428 20.3732 31.6428 21.1799C31.6428 21.9866 32.2977 22.6405 33.1055 22.6405Z" fill="white"/>
<path d="M0 25.5619H7.31322L0 18.2585V25.5619Z" fill="#C4C4C4"/>
<path d="M9.14153 9.12925L0 0V7.3034L9.14153 16.4326V9.12925Z" fill="#C4C4C4"/>
<path d="M0 9.12915V16.4326L9.14153 25.5618V18.2584L0 9.12915Z" fill="#C4C4C4"/>
<path d="M18.2831 9.12925L9.1416 0V7.3034L18.2831 16.4326V9.12925Z" fill="#C4C4C4"/>
<path d="M9.1416 25.5619H16.4548L9.1416 18.2585V25.5619Z" fill="#C4C4C4"/>
<path d="M9.1416 9.12915V16.4326L18.2831 25.5618V18.2584L9.1416 9.12915Z" fill="#C4C4C4"/>
<path d="M73.4891 15.451C73.4891 18.7229 72.0235 20.9183 67.0754 20.9183H64.349V25.5618H61.3711V10.0056H67.0754C72.0235 10.007 73.4891 12.1791 73.4891 15.451ZM70.5111 15.451C70.5111 13.5521 69.9158 12.7516 67.6019 12.7516H64.349V18.1737H67.6019C69.9158 18.1737 70.5111 17.2812 70.5111 15.451Z" fill="#C4C4C4"/>
<path d="M74.978 19.6608C74.978 16.0689 76.9702 13.5522 80.6824 13.5522C84.3931 13.5522 86.3867 16.0689 86.3867 19.6608C86.3867 23.2526 84.3931 25.7912 80.6824 25.7912C76.9716 25.7912 74.978 23.2511 74.978 19.6608ZM83.4087 19.6608C83.4087 17.144 82.6994 16.2983 80.6824 16.2983C78.6668 16.2983 77.956 17.144 77.956 19.6608C77.956 22.1775 78.6654 23.0466 80.6824 23.0466C82.6979 23.0452 83.4087 22.1761 83.4087 19.6608Z" fill="#C4C4C4"/>
<path d="M88.3335 21.3304C90.4178 22.6348 91.9536 23.0467 93.6488 23.0467C94.7487 23.0467 95.2065 22.6114 95.2065 22.0403C95.2065 21.3772 94.794 21.0573 92.9613 20.7593C89.3647 20.2101 88.3335 18.7918 88.3335 16.9849C88.3335 14.6288 90.3037 13.5537 92.7551 13.5537C94.2894 13.5537 96.1455 13.9657 97.2674 14.7427V17.4874C95.5956 16.6635 93.7863 16.2984 92.5255 16.2984C91.7005 16.2984 91.3115 16.5963 91.3115 17.1222C91.3115 17.6948 91.6098 18.0147 93.4425 18.4032C96.8783 19.1116 98.1845 19.8449 98.1845 22.109C98.1845 24.4417 96.1002 25.7913 93.4192 25.7913C91.6318 25.7913 90.0053 25.4481 88.3335 24.3277V21.3304Z" fill="#C4C4C4"/>
<path d="M104.139 16.5262V22.8174H107.276V25.562H101.161V16.5262H99.3281V13.7816H101.161V9.55005H104.139V13.7816H107.276V16.5262H104.139Z" fill="#C4C4C4"/>
<path d="M123.06 10.0071V25.5634H120.082V19.3862H113.232V25.5634H110.254V10.0071H113.232V16.6415H120.082V10.0071H123.06Z" fill="#C4C4C4"/>
<path d="M125.352 19.6608C125.352 16.0689 127.344 13.5522 131.056 13.5522C134.767 13.5522 136.76 16.0689 136.76 19.6608C136.76 23.2526 134.767 25.7912 131.056 25.7912C127.345 25.7912 125.352 23.2511 125.352 19.6608ZM133.781 19.6608C133.781 17.144 133.071 16.2983 131.054 16.2983C129.039 16.2983 128.328 17.144 128.328 19.6608C128.328 22.1775 129.037 23.0466 131.054 23.0466C133.071 23.0452 133.781 22.1761 133.781 19.6608Z" fill="#C4C4C4"/>
<path d="M150 13.7815V29.2224H140.608V26.4777H147.022V23.2745C146.335 24.0296 145.327 24.6475 143.677 24.6475C140.241 24.6475 138.591 22.0621 138.591 19.0882C138.591 16.1376 140.241 13.5522 143.677 13.5522C145.327 13.5522 146.335 14.1701 147.022 15.0392V13.7815H150ZM147.022 19.0882C147.022 17.3266 146.313 16.2968 144.296 16.2968C142.28 16.2968 141.569 17.3266 141.569 19.0882C141.569 20.8731 142.28 21.9014 144.296 21.9014C146.311 21.9014 147.022 20.9871 147.022 19.0882Z" fill="#C4C4C4"/>
</svg>
