<svg width="250" height="50" viewBox="0 0 250 50" fill="none" xmlns="http://www.w3.org/2000/svg">
<g clip-path="url(#clip0)">
<path d="M0 30.4308L12.1887 42.6032H0V30.4308ZM0 27.3877L15.2359 42.6032H27.4245L0 15.2154V27.3877ZM0 12.1723L30.4717 42.6032H42.6605L0 0V12.1723ZM15.2359 12.1723L45.7077 42.6032V30.4308L15.2359 0V12.1723ZM30.4717 0V12.1723L45.7077 27.3877V15.2154L30.4717 0Z" fill="#CCCCCC"/>
<path d="M73.1322 37.7343C70.0096 37.7343 67.0159 36.4951 64.8097 34.2919L47.8625 17.3674V42.6031H73.1322V37.7343Z" fill="#CCCCCC"/>
<path d="M55.1759 37.7341C56.5222 37.7341 57.6135 36.6442 57.6135 35.2997C57.6135 33.9552 56.5222 32.8652 55.1759 32.8652C53.8295 32.8652 52.738 33.9552 52.738 35.2997C52.738 36.6442 53.8295 37.7341 55.1759 37.7341Z" fill="white"/>
<path d="M0 42.6032H12.1887L0 30.4309V42.6032Z" fill="#CCCCCC"/>
<path d="M15.2359 15.2154L0 0V12.1723L15.2359 27.3877V15.2154Z" fill="#CCCCCC"/>
<path d="M0 15.2153V27.3877L15.2359 42.6031V30.4307L0 15.2153Z" fill="#CCCCCC"/>
<path d="M30.4716 15.2154L15.2358 0V12.1723L30.4716 27.3877V15.2154Z" fill="#CCCCCC"/>
<path d="M15.2358 42.6032H27.4245L15.2358 30.4309V42.6032Z" fill="#CCCCCC"/>
<path d="M15.2358 15.2153V27.3877L30.4716 42.6031V30.4307L15.2358 15.2153Z" fill="#CCCCCC"/>
<path d="M122.482 25.7517C122.482 31.2049 120.039 34.8639 111.792 34.8639H107.248V42.603H102.285V16.676H111.792C120.039 16.6784 122.482 20.2985 122.482 25.7517ZM117.518 25.7517C117.518 22.5869 116.526 21.2527 112.67 21.2527H107.248V30.2895H112.67C116.526 30.2895 117.518 28.802 117.518 25.7517Z" fill="#CCCCCC"/>
<path d="M124.963 32.7679C124.963 26.7814 128.284 22.5869 134.471 22.5869C140.655 22.5869 143.978 26.7814 143.978 32.7679C143.978 38.7542 140.655 42.9852 134.471 42.9852C128.286 42.9852 124.963 38.7517 124.963 32.7679ZM139.015 32.7679C139.015 28.5732 137.832 27.1637 134.471 27.1637C131.111 27.1637 129.927 28.5732 129.927 32.7679C129.927 36.9624 131.109 38.4109 134.471 38.4109C137.83 38.4086 139.015 36.9601 139.015 32.7679Z" fill="#CCCCCC"/>
<path d="M147.222 35.5505C150.696 37.7245 153.256 38.411 156.081 38.411C157.914 38.411 158.677 37.6855 158.677 36.7337C158.677 35.6285 157.99 35.0954 154.935 34.5987C148.941 33.6834 147.222 31.3195 147.222 28.308C147.222 24.3812 150.506 22.5894 154.592 22.5894C157.149 22.5894 160.242 23.276 162.112 24.571V29.1455C159.326 27.7724 156.31 27.1639 154.209 27.1639C152.834 27.1639 152.186 27.6604 152.186 28.5369C152.186 29.4912 152.683 30.0244 155.737 30.6719C161.464 31.8525 163.641 33.0747 163.641 36.8482C163.641 40.736 160.167 42.9854 155.699 42.9854C152.72 42.9854 150.009 42.4134 147.222 40.546V35.5505Z" fill="#CCCCCC"/>
<path d="M173.565 27.5437V38.029H178.793V42.6033H168.602V27.5437H165.547V22.9693H168.602V15.9167H173.565V22.9693H178.793V27.5437H173.565Z" fill="#CCCCCC"/>
<path d="M205.1 16.6785V42.6056H200.137V32.3103H188.72V42.6056H183.757V16.6785H188.72V27.7358H200.137V16.6785H205.1Z" fill="#CCCCCC"/>
<path d="M208.92 32.7679C208.92 26.7814 212.24 22.5869 218.427 22.5869C224.612 22.5869 227.933 26.7814 227.933 32.7679C227.933 38.7542 224.612 42.9852 218.427 42.9852C212.242 42.9852 208.92 38.7517 208.92 32.7679ZM222.968 32.7679C222.968 28.5732 221.785 27.1637 218.423 27.1637C215.065 27.1637 213.88 28.5732 213.88 32.7679C213.88 36.9624 215.062 38.4109 218.423 38.4109C221.785 38.4086 222.968 36.9601 222.968 32.7679Z" fill="#CCCCCC"/>
<path d="M250 22.9691V48.7039H234.347V44.1294H245.037V38.7907C243.892 40.0492 242.212 41.0791 239.462 41.0791C233.735 41.0791 230.985 36.7701 230.985 31.8136C230.985 26.8959 233.735 22.5869 239.462 22.5869C242.212 22.5869 243.892 23.6167 245.037 25.0652V22.9691H250ZM245.037 31.8136C245.037 28.8776 243.855 27.1612 240.493 27.1612C237.133 27.1612 235.948 28.8776 235.948 31.8136C235.948 34.7884 237.133 36.5022 240.493 36.5022C243.852 36.5022 245.037 34.9784 245.037 31.8136Z" fill="#CCCCCC"/>
</g>
<defs>
<clipPath id="clip0">
<rect width="250" height="50" fill="white"/>
</clipPath>
</defs>
</svg>
