<svg width="79" height="32" viewBox="0 0 79 32" fill="none" xmlns="http://www.w3.org/2000/svg">
<g clip-path="url(#clip0)">
<path d="M6.71223 13.5119C8.04168 13.5135 9.34172 13.1186 10.4479 12.3772C11.554 11.6358 12.4166 10.5812 12.9264 9.34682C13.4362 8.11247 13.5704 6.75383 13.312 5.44278C13.0536 4.13174 12.4142 2.9272 11.4747 1.98157C10.5352 1.03595 9.33781 0.391718 8.03403 0.130397C6.73024 -0.130925 5.37865 0.00240254 4.15025 0.513511C2.92186 1.02462 1.87185 1.89054 1.13309 3.00172C0.394327 4.1129 9.11437e-07 5.41941 0 6.75595C-1.22095e-06 8.54637 0.706927 10.2636 1.96549 11.5303C3.22405 12.7971 4.93132 13.5098 6.71223 13.5119Z" fill="#CCCCCC"/>
<path d="M14.896 23.0765V14.9836L22.946 23.0765H14.896Z" fill="#CCCCCC"/>
<path d="M22.9459 6.89849L6.85387 23.0763H0L22.9459 0.00805664V6.89849Z" fill="#CCCCCC"/>
<path fill-rule="evenodd" clip-rule="evenodd" d="M38.0544 0.00805664H40.9895C43.0249 0.0266315 44.9716 0.847732 46.4109 2.29468C47.8502 3.74162 48.6669 5.69876 48.6854 7.74497C48.6791 9.77611 47.8738 11.7222 46.4452 13.1585C45.0165 14.5947 43.0807 15.4044 41.0603 15.4106H36.7954V23.0763H32.1763V0.00805664H36.7954V10.8381H40.9895C41.8055 10.8381 42.5881 10.5122 43.1651 9.93217C43.7421 9.35209 44.0663 8.56533 44.0663 7.74497C44.0663 6.9246 43.7421 6.13784 43.1651 5.55776C42.5881 4.97767 41.8055 4.65178 40.9895 4.65178H36.7954L38.0544 0.00805664ZM49.8028 23.0763H54.4219V6.62161H49.8028V23.0763ZM64.9112 6.62161L69.5224 23.0605L74.1415 6.62161H78.6898L71.6077 31.9999H67.0122L69.5224 23.0763H64.9112L60.2921 6.62161L59.0173 11.1862H54.4219L55.7438 6.62161H64.9112Z" fill="#CCCCCC"/>
<path fill-rule="evenodd" clip-rule="evenodd" d="M38.0544 0.00805664H40.9895C43.0249 0.0266315 44.9716 0.847732 46.4109 2.29468C47.8502 3.74162 48.6669 5.69876 48.6854 7.74497C48.6791 9.77611 47.8738 11.7222 46.4452 13.1585C45.0165 14.5947 43.0807 15.4044 41.0603 15.4106H36.7954V23.0763H32.1763V0.00805664H36.7954V10.8381H40.9895C41.8055 10.8381 42.5881 10.5122 43.1651 9.93217C43.7421 9.35209 44.0663 8.56533 44.0663 7.74497C44.0663 6.9246 43.7421 6.13784 43.1651 5.55776C42.5881 4.97767 41.8055 4.65178 40.9895 4.65178H36.7954L38.0544 0.00805664ZM49.8028 23.0763H54.4219V6.62161H49.8028V23.0763ZM64.9112 6.62161L69.5224 23.0605L74.1415 6.62161H78.6898L71.6077 31.9999H67.0122L69.5224 23.0763H64.9112L60.2921 6.62161L59.0173 11.1862H54.4219L55.7438 6.62161H64.9112Z" fill="#CCCCCC"/>
</g>
<defs>
<clipPath id="clip0">
<rect width="79" height="32" fill="white"/>
</clipPath>
</defs>
</svg>
