<svg width="200" height="34" viewBox="0 0 200 34" fill="none" xmlns="http://www.w3.org/2000/svg">
<path d="M24.3299 30.08V30.05C14.0099 27.89 5.5799 15.62 5.5799 8.03C5.5799 6.29 6.3299 5.48 7.5299 5.48C11.8799 5.48 18.5399 15.92 18.5399 22.37C18.5399 23.42 18.3899 24.29 17.9999 25.1C21.1799 23.18 23.1899 19.55 23.1899 15.29C23.1899 8.72 18.2999 3.8 11.7299 3.8C4.8899 3.8 0.899902 9.23 0.899902 15.11C0.899902 23.48 8.3399 30.26 24.3299 30.08ZM41.1819 25.52V10.43L33.4719 13.13L35.1819 14.6V23.21C34.6719 23.39 34.1319 23.51 33.6519 23.51C32.1519 23.51 31.9419 22.52 31.9419 20V10.58L24.2319 13.28L25.9419 14.75V21.2C25.9419 24.77 27.1119 26.33 29.8119 26.33C31.4919 26.33 33.2019 25.13 35.1819 23.69V26H42.6819V25.52H41.1819ZM57.5828 25.52V17.21C57.5828 12.86 55.5728 10.7 51.7928 10.7C48.7928 10.7 46.5728 11.93 44.5328 14.21L44.6828 14.36C45.7028 13.58 46.6328 13.22 47.9828 13.22C50.2628 13.22 51.5828 14.87 51.5828 18.17C46.6028 18.71 43.6628 20.54 43.6628 23.3C43.6628 25.19 44.9828 26.3 46.9328 26.3C48.5828 26.3 50.1728 25.49 51.5828 24.29V26H59.0828V25.52H57.5828ZM50.8928 23.96C49.6928 23.96 49.0928 23.21 49.0928 21.8C49.0928 20.21 49.7828 19.07 51.5828 18.56V23.87C51.3128 23.93 51.0728 23.96 50.8928 23.96ZM76.9361 25.52V3.5L69.2261 6.2L70.9361 7.67V11.81C70.0061 11.18 68.9261 10.7 67.3361 10.7C63.2261 10.7 60.3761 14.21 60.3761 19.19C60.3761 23.81 62.6561 26.3 65.7161 26.3C67.4861 26.3 69.3461 25.25 70.9361 23.63V26H78.4361V25.52H76.9361ZM69.6761 23.51C67.6661 23.51 66.7961 21.5 66.7961 17.48C66.7961 13.76 67.9061 11.87 69.4661 11.87C69.9761 11.87 70.5161 12.02 70.9361 12.32V23.21C70.5161 23.39 70.1261 23.51 69.6761 23.51ZM92.0943 10.67C90.7143 10.67 88.7643 12.08 87.0543 14.33V10.58L79.3443 13.16L81.0543 14.63V25.52H79.5543V26H89.3043V25.52H87.0543V14.66C88.1043 14.48 89.5143 15.26 92.6343 18.71H92.6643V10.76C92.4843 10.7 92.3043 10.67 92.0943 10.67ZM107.241 25.52V17.21C107.241 12.86 105.231 10.7 101.451 10.7C98.451 10.7 96.231 11.93 94.191 14.21L94.341 14.36C95.361 13.58 96.291 13.22 97.641 13.22C99.921 13.22 101.241 14.87 101.241 18.17C96.261 18.71 93.321 20.54 93.321 23.3C93.321 25.19 94.641 26.3 96.591 26.3C98.241 26.3 99.831 25.49 101.241 24.29V26H108.741V25.52H107.241ZM100.551 23.96C99.351 23.96 98.751 23.21 98.751 21.8C98.751 20.21 99.441 19.07 101.241 18.56V23.87C100.971 23.93 100.731 23.96 100.551 23.96ZM126.947 25.52V15.2C126.947 12.14 125.627 10.55 123.077 10.55C121.037 10.55 119.297 11.72 117.347 13.4V10.4L109.637 13.1L111.347 14.57V25.52H109.847V26H118.547V25.52H117.347V13.82C117.947 13.55 118.547 13.37 119.147 13.37C120.377 13.37 120.947 14.15 120.947 16.49V25.52H119.747V26H128.447V25.52H126.947ZM141.58 23.21C140.98 23.45 140.47 23.54 139.81 23.54C137.59 23.54 136.78 22.25 136.78 18.77V11.78H141.01V11.3H136.78V5.21L128.47 11.75V11.78H130.78V20.3C130.78 24.2 132.19 26.3 135.76 26.3C138.52 26.3 140.5 25.01 141.61 23.24L141.58 23.21ZM167.268 11.9H167.298V4.4H148.608L151.278 6.02V25.52H148.878V26H167.298V18.5H167.268C164.448 23.72 161.418 25.46 157.878 25.52V14.9C159.828 14.99 161.838 16.55 162.978 18.89H163.008V10.52H162.978C161.868 12.8 159.768 14.39 157.878 14.48V4.88C161.418 4.91 164.448 6.74 167.268 11.9ZM180.876 11.3L183.186 12.77L180.366 20.66L177.036 12.77L179.046 11.3H168.516L170.556 12.77L177.636 25.85L168.906 29.84L174.606 33.83L178.176 26L184.686 12.77L186.696 11.3H180.876ZM199.536 23.27C199.266 23.33 198.966 23.36 198.666 23.36C196.656 23.36 194.496 22.25 192.786 20.57C196.386 19.22 198.306 17.03 198.306 14.54C198.306 12.35 196.356 10.7 193.536 10.7C188.736 10.7 185.796 14.33 185.796 18.71C185.796 23.36 189.276 26.3 193.506 26.3C196.296 26.3 198.306 25.22 199.566 23.3L199.536 23.27ZM190.746 11.75C192.036 11.75 193.776 13.97 193.776 16.58C193.776 18.11 193.446 19.31 192.606 20.39C190.806 18.53 189.516 16.01 189.516 13.52C189.516 12.41 189.966 11.75 190.746 11.75Z" fill="#CCCCCC"/>
</svg>
