<svg width="908" height="730" viewBox="0 0 908 730" fill="none" xmlns="http://www.w3.org/2000/svg">
<path d="M423.15 728C623.629 728 786.15 565.479 786.15 365C786.15 164.521 623.629 2 423.15 2C222.671 2 60.15 164.521 60.15 365C60.15 565.479 222.671 728 423.15 728Z" stroke="#64FFDA" stroke-width="4" stroke-miterlimit="10" stroke-dasharray="12.07 15.09"/>
<path opacity="0.2" d="M460.22 190.93H78.24V433.9H460.22V190.93Z" fill="#639AFF"/>
<path d="M440.05 156H2V404.81H440.05V156Z" fill="url(#paint0_linear)"/>
<path d="M434.21 192.22H6.66998V398.98H434.21V192.22Z" fill="white"/>
<path d="M184.23 209.74H35.88V366.27H184.23V209.74Z" fill="url(#paint1_linear)"/>
<path d="M180.73 213.24H40.55V362.76H180.73V213.24Z" fill="#639AFF"/>
<path d="M149.79 272.28C148.69 263.4 147.18 254.47 143.79 246.19C140.4 237.91 134.93 230.25 127.33 225.53C124.621 223.708 121.485 222.623 118.23 222.38C112.23 222.17 106.78 226.18 103.71 231.29C102.672 233.057 101.766 234.899 101 236.8C98.1648 237.282 95.5736 238.702 93.6423 240.833C91.7109 242.963 90.5515 245.681 90.35 248.55C84.0637 251.228 78.7735 255.807 75.2215 261.644C71.6696 267.481 70.0343 274.284 70.5449 281.098C71.0556 287.912 73.6866 294.395 78.0689 299.637C82.4512 304.88 88.3648 308.619 94.98 310.33V315.91C87.9703 317.743 81.7637 321.843 77.327 327.572C72.8902 333.3 70.4724 340.335 70.45 347.58V362.77H135.87V347.58C135.848 340.335 133.43 333.3 128.993 327.572C124.556 321.843 118.35 317.743 111.34 315.91V310.33C118.362 308.515 124.581 304.418 129.021 298.684C133.461 292.949 135.87 285.902 135.87 278.65C135.87 278.57 135.87 278.5 135.87 278.42L139.55 286.61C143.05 294.41 146.64 302.79 145.28 311.23C151.98 299.75 151.42 285.5 149.79 272.28Z" fill="white"/>
<path d="M434.21 160.68H6.66998V192.22H434.21V160.68Z" fill="#639AFF"/>
<path d="M400.33 257.05H237.96V267.56H400.33V257.05Z" fill="#E0E0E0"/>
<path d="M400.33 301.44H237.96V311.95H400.33V301.44Z" fill="#F5F5F5"/>
<path opacity="0.2" d="M332.58 279.24H236.79V289.75H332.58V279.24Z" fill="#639AFF"/>
<path opacity="0.2" d="M302.21 323.63H236.79V334.14H302.21V323.63Z" fill="#69F0AE"/>
<path d="M379.31 323.63H313.89V334.14H379.31V323.63Z" fill="#69F0AE"/>
<path d="M623.048 238.159C623.048 256.199 607.751 270.935 589.024 270.935C570.298 270.935 555 256.199 555 238.159C555 220.12 570.298 205.384 589.024 205.384H623.048V238.159Z" fill="#E01E5A"/>
<path d="M640.192 238.159C640.192 220.12 655.49 205.384 674.216 205.384C692.943 205.384 708.241 220.12 708.241 238.159V320.225C708.241 338.264 692.943 353 674.216 353C655.49 353 640.192 338.264 640.192 320.225V238.159Z" fill="#E01E5A"/>
<path d="M674.216 106.55C655.49 106.55 640.192 91.8143 640.192 73.7752C640.192 55.7361 655.49 41 674.216 41C692.943 41 708.241 55.7361 708.241 73.7752V106.55H674.216Z" fill="#36C5F0"/>
<path d="M674.216 123.064C692.943 123.064 708.241 137.801 708.241 155.84C708.241 173.879 692.943 188.615 674.216 188.615H589.024C570.298 188.615 555 173.879 555 155.84C555 137.801 570.298 123.064 589.024 123.064H674.216Z" fill="#36C5F0"/>
<path d="M810.841 155.84C810.841 137.801 826.138 123.064 844.865 123.064C863.591 123.064 878.889 137.801 878.889 155.84C878.889 173.879 863.591 188.615 844.865 188.615H810.841V155.84Z" fill="#2EB67D"/>
<path d="M793.697 155.84C793.697 173.879 778.399 188.616 759.672 188.616C740.946 188.616 725.648 173.879 725.648 155.84V73.7752C725.648 55.7362 740.946 41 759.672 41C778.399 41 793.697 55.7362 793.697 73.7752V155.84Z" fill="#2EB67D"/>
<path d="M759.672 287.449C778.399 287.449 793.697 302.185 793.697 320.224C793.697 338.263 778.399 353 759.672 353C740.946 353 725.648 338.263 725.648 320.224V287.449H759.672Z" fill="#ECB22E"/>
<path d="M759.672 270.935C740.946 270.935 725.648 256.199 725.648 238.159C725.648 220.12 740.946 205.384 759.672 205.384H844.865C863.591 205.384 878.889 220.12 878.889 238.159C878.889 256.199 863.591 270.935 844.865 270.935H759.672Z" fill="#ECB22E"/>
<path opacity="0.2" d="M816.74 540.51H313.91V675.76H816.74V540.51Z" fill="#639AFF"/>
<path d="M793.15 511H283V655.01H793.15V511Z" fill="url(#paint2_linear)"/>
<path d="M789.49 515.88H286.66V650.13H789.49V515.88Z" fill="white"/>
<path d="M409.54 633.31C437.32 633.31 459.84 610.79 459.84 583.01C459.84 555.23 437.32 532.71 409.54 532.71C381.76 532.71 359.24 555.23 359.24 583.01C359.24 610.79 381.76 633.31 409.54 633.31Z" fill="url(#paint3_linear)"/>
<path d="M409.54 627.72C434.233 627.72 454.25 607.702 454.25 583.01C454.25 558.317 434.233 538.3 409.54 538.3C384.847 538.3 364.83 558.317 364.83 583.01C364.83 607.702 384.847 627.72 409.54 627.72Z" fill="#639AFF"/>
<g opacity="0.2">
<path opacity="0.2" d="M577.2 549.48H497.56V563.45H577.2V549.48Z" fill="#639AFF"/>
<path opacity="0.2" d="M716.91 576.02H497.56V589.99H716.91V576.02Z" fill="#639AFF"/>
<path opacity="0.2" d="M716.91 602.57H497.56V616.54H716.91V602.57Z" fill="#639AFF"/>
</g>
<path d="M438.88 565.08L429.06 557.59L403.18 591.5L388.74 580.48L381.25 590.29L400.61 605.07L400.66 605L405.56 608.74L438.88 565.08Z" fill="white"/>
<defs>
<linearGradient id="paint0_linear" x1="221.02" y1="404.82" x2="221.02" y2="156" gradientUnits="userSpaceOnUse">
<stop stop-color="#808080" stop-opacity="0.25"/>
<stop offset="0.54" stop-color="#808080" stop-opacity="0.12"/>
<stop offset="1" stop-color="#808080" stop-opacity="0.1"/>
</linearGradient>
<linearGradient id="paint1_linear" x1="5061.98" y1="32605.2" x2="27069.7" y2="32605.2" gradientUnits="userSpaceOnUse">
<stop stop-color="#808080" stop-opacity="0.25"/>
<stop offset="0.54" stop-color="#808080" stop-opacity="0.12"/>
<stop offset="1" stop-color="#808080" stop-opacity="0.1"/>
</linearGradient>
<linearGradient id="paint2_linear" x1="320841" y1="97278.5" x2="320841" y2="76538.2" gradientUnits="userSpaceOnUse">
<stop stop-color="#808080" stop-opacity="0.25"/>
<stop offset="0.54" stop-color="#808080" stop-opacity="0.12"/>
<stop offset="1" stop-color="#808080" stop-opacity="0.1"/>
</linearGradient>
<linearGradient id="paint3_linear" x1="50642.1" y1="65946.8" x2="50642.1" y2="55826.5" gradientUnits="userSpaceOnUse">
<stop stop-color="#808080" stop-opacity="0.25"/>
<stop offset="0.54" stop-color="#808080" stop-opacity="0.12"/>
<stop offset="1" stop-color="#808080" stop-opacity="0.1"/>
</linearGradient>
</defs>
</svg>
