<svg width="242" height="50" viewBox="0 0 242 50" fill="none" xmlns="http://www.w3.org/2000/svg">
<g clip-path="url(#clip0)">
<path fill-rule="evenodd" clip-rule="evenodd" d="M0.0925293 0H49.8052V50.0001H0.0925293V0ZM14.6763 12.1668L23.2931 28.3335V38.8335H26.6073V28.5001L35.2242 12.1668H31.5786L26.6073 22.3335C26.2759 22.8335 25.9445 23.3335 25.7787 23.8335C25.6834 24.2172 25.5331 24.4906 25.3911 24.7486C25.2864 24.9391 25.1862 25.1213 25.1159 25.3335C25.0331 25.2501 24.9917 25.1251 24.9502 25.0001C24.9087 24.8751 24.8674 24.7501 24.7845 24.6669C24.7017 24.5001 24.6602 24.3751 24.6189 24.2501C24.5774 24.1251 24.5359 24.0001 24.4531 23.8335V23.6669L24.2874 23.5001C24.224 23.3728 24.1849 23.2698 24.1515 23.1819C24.0975 23.0395 24.0584 22.9364 23.9559 22.8335C23.7902 22.6669 23.6246 22.5001 23.6246 22.3335L18.6533 12.1668H14.6763Z" fill="#CCCCCC"/>
<path d="M72.5074 9.66675C74.9931 9.66675 77.1472 10.3334 78.8044 11.6667L77.1472 13.6667C75.6559 12.6667 74.1646 12.0001 72.3418 12.0001C69.5247 12.0001 67.3705 13.5001 66.2105 16.3335C65.5477 18.0001 65.2162 20.1668 65.2162 23.0001C65.2162 25.1668 65.5477 27.0001 66.0447 28.3335C67.3705 31.5001 69.5247 33.0001 72.8388 33.0001C74.6616 33.0001 76.3187 32.5001 77.8102 31.3335L79.4672 33.5001C77.313 34.8335 74.9931 35.5001 72.5074 35.5001C69.5247 35.5001 67.039 34.3335 65.0505 31.8335C63.0621 29.5001 62.2334 26.3335 62.2334 22.5001C62.2334 18.6668 63.2277 15.6668 65.2162 13.1667C67.039 11.0001 69.5247 9.66675 72.5074 9.66675Z" fill="#CCCCCC"/>
<path d="M81.9529 26.1668C81.9529 23.1668 82.6158 20.8334 84.1071 19.1668C85.5985 17.5 87.4213 16.5 89.7413 16.5C92.3926 16.5 94.5468 17.5 96.0382 19.6668C97.1982 21.3334 97.6952 23.6668 97.6952 26.5C97.6952 29.8334 96.701 32.5 94.8782 34.1668C93.5526 35.3334 91.8954 36 89.907 36C87.4213 36 85.5985 35.1668 84.1071 33.3334C82.6158 31.6668 81.9529 29.1668 81.9529 26.1668ZM93.5526 21.3334C92.7241 19.8334 91.5641 19 89.7413 19C87.9185 19 86.7585 19.6668 85.9299 21C85.2671 22 85.1014 23.6668 85.1014 25.8334C85.1014 28.6668 85.4327 30.6668 86.2614 31.8334C87.0899 33 88.2498 33.6668 89.907 33.6668C91.8954 33.6668 93.2211 32.6668 93.8839 30.8334C94.2154 29.8334 94.3811 28.5 94.3811 26.8334C94.5468 24.3334 94.2154 22.5 93.5526 21.3334Z" fill="#CCCCCC"/>
<path d="M102.998 21.6668C102.998 19.8334 102.832 18.3334 102.335 17.1668L105.152 16.5C105.649 17.3334 105.815 18.3334 105.815 19.1668V19.3334C106.478 18.6668 107.141 18 108.135 17.5C109.295 16.8334 110.289 16.5 111.283 16.5C112.775 16.5 114.1 17.1668 114.929 18.3334C115.095 18.6668 115.426 19.1668 115.592 19.5C117.58 17.5 119.403 16.5 121.391 16.5C122.717 16.5 123.877 17 124.706 17.8334C125.534 18.8334 126.031 20 126.031 21.3334V35.1668H123.049V21.5C123.049 19.6668 122.22 18.8334 120.729 18.8334C119.9 18.8334 118.906 19.1668 118.077 19.8334C117.746 20.1668 117.083 20.6668 116.255 21.3334L115.923 21.6668V35.1668H112.775V22.1668C112.775 21 112.609 20.1668 112.277 19.8334C111.78 19.3334 111.283 19.1668 110.455 19.1668C109.129 19.1668 107.638 20 105.815 21.6668V35.3334H102.998V21.6668Z" fill="#CCCCCC"/>
<path d="M131.168 9.00016L134.151 8.3335C134.482 9.66682 134.648 11.1668 134.648 13.0002V17.1668C134.648 18.1668 134.648 18.8334 134.648 19.1668C136.305 17.5002 138.128 16.6668 139.951 16.6668C142.105 16.6668 143.928 17.5002 145.088 19.1668C146.413 20.8334 147.076 23.1668 147.076 26.0002C147.076 29.0002 146.413 31.3334 145.088 33.1668C143.762 35.0002 141.939 35.8334 139.785 35.8334C138.791 35.8334 137.962 35.6668 136.968 35.1668C135.974 34.6668 135.311 34.1668 134.814 33.5002C134.648 34.3334 134.482 35.0002 134.316 35.5002H131.499C131.831 34.6668 131.996 33.1668 131.996 30.8334V13.3335C131.831 11.3335 131.665 9.8335 131.168 9.00016ZM135.974 20.3334C135.476 20.6668 134.979 21.1668 134.648 21.6668V31.1668C135.808 32.6668 137.299 33.3334 139.122 33.3334C140.613 33.3334 141.773 32.8334 142.436 31.6668C143.265 30.3334 143.762 28.5002 143.762 25.8334C143.762 23.5002 143.43 21.8334 142.602 20.8334C141.939 19.8334 140.779 19.3334 139.122 19.3334C138.128 19.1668 136.968 19.5002 135.974 20.3334Z" fill="#CCCCCC"/>
<path d="M151.385 11.3333C151.385 10.6667 151.551 10.1667 152.048 9.66666C152.546 9.16666 153.043 9 153.704 9C154.368 9 154.865 9.16666 155.362 9.66666C155.859 10.1667 156.025 10.6667 156.025 11.3333C156.025 12 155.859 12.5 155.362 13C154.865 13.5 154.368 13.6667 153.704 13.6667C153.043 13.6667 152.546 13.5 152.048 13C151.551 12.5 151.385 12 151.385 11.3333ZM152.048 35.3334V17.0001L155.031 16.5001V35.3334H152.048Z" fill="#CCCCCC"/>
<path d="M161.492 21.6668C161.492 20.3334 161.492 19.5 161.328 19.1668C161.328 18.6668 160.995 18.1668 160.665 17.3334L163.482 16.5C163.979 17.5 164.144 18.3334 164.144 19.3334C165.967 17.5 167.956 16.5 169.944 16.5C170.938 16.5 171.767 16.6668 172.595 17.1668C173.423 17.6668 174.087 18.3334 174.419 19.1668C174.75 19.8334 174.916 20.5 174.916 21.3334V35.3334H172.098V22.8334C172.098 21.3334 171.932 20.3334 171.435 19.8334C170.938 19.3334 170.275 19 169.447 19C168.784 19 167.79 19.3334 166.795 19.8334C165.801 20.3334 164.973 21 164.31 21.6668V35.3334H161.492V21.6668Z" fill="#CCCCCC"/>
<path d="M181.544 21L180.051 19C182.538 17.3334 185.023 16.5 187.675 16.5C190.326 16.5 191.984 17.5 192.812 19.3334C193.142 20 193.143 21 193.143 22.5V23.5L192.978 29.5C192.978 29.6668 192.978 30 192.978 30.3334C192.978 31.3334 192.978 32 193.143 32.5C193.309 33.1668 193.806 33.6668 194.469 34L192.978 36C191.651 35.5 190.823 34.6668 190.491 33.3334C188.835 35 187.012 35.8334 185.19 35.8334C183.366 35.8334 181.875 35.3334 180.715 34.3334C179.72 33.5 179.223 32.1668 179.223 30.5C179.223 28.3334 180.051 26.8334 181.709 25.6668C183.366 24.5 185.851 24 188.835 24C189.332 24 189.663 24 190.16 24V22.6668C190.16 21.1668 189.994 20.1668 189.497 19.8334C188.835 19.1668 188.172 18.8334 187.012 18.8334C186.017 18.8334 184.857 19.1668 183.532 19.6668C183.035 20 182.372 20.5 181.544 21ZM190.326 30.8334L190.491 26C189.663 26 189.166 26 189 26C186.348 26 184.693 26.5 183.697 27.5C183.035 28.1668 182.703 29.1668 182.703 30.5C182.703 32.6668 183.697 33.8334 185.851 33.8334C187.841 33.6668 189.332 32.6668 190.326 30.8334Z" fill="#CCCCCC"/>
<path d="M202.59 17.0002H207.229L206.4 19.3334H202.59V31.1668C202.59 32.1668 202.754 32.8334 203.087 33.3334C203.418 33.6668 204.081 34.0002 204.909 34.0002C205.572 34.0002 206.235 33.8334 206.732 33.6668L207.063 35.5002C206.069 36.0002 205.075 36.1668 203.915 36.1668C201.097 36.1668 199.772 34.8334 199.772 32.0002V19.3334H197.287V17.0002H199.606V16.6668C199.606 16.3334 199.772 15.0002 199.938 12.8334V12.3334L202.92 11.6667C202.59 13.6667 202.59 15.5002 202.59 17.0002Z" fill="#CCCCCC"/>
<path d="M210.212 26.1668C210.212 23.1668 210.875 20.8334 212.366 19.1668C213.693 17.5 215.681 16.5 218 16.5C220.651 16.5 222.806 17.5 224.297 19.6668C225.457 21.3334 225.954 23.6668 225.954 26.5C225.954 29.8334 224.96 32.5 223.138 34.1668C221.812 35.3334 220.154 36 218.166 36C215.681 36 213.857 35.1668 212.366 33.3334C211.041 31.6668 210.212 29.1668 210.212 26.1668ZM221.978 21.3334C221.148 19.8334 219.99 19 218.166 19C216.344 19 215.184 19.6668 214.354 21C213.693 22 213.526 23.6668 213.526 25.8334C213.526 28.6668 213.857 30.6668 214.687 31.8334C215.515 33 216.675 33.6668 218.332 33.6668C220.32 33.6668 221.645 32.6668 222.309 30.8334C222.64 29.8334 222.806 28.5 222.806 26.8334C222.806 24.3334 222.475 22.5 221.978 21.3334Z" fill="#CCCCCC"/>
<path d="M231.422 21.3334C231.422 19.6668 231.256 18.3334 230.759 17.3334L233.576 16.5C234.073 17.5 234.238 18.3334 234.238 19.3334V19.6668C235.729 17.6668 237.387 16.6668 239.375 16.6668C239.707 16.6668 240.038 16.6668 240.371 16.8334L239.21 20C238.878 19.8334 238.547 19.8334 238.381 19.8334C237.719 19.8334 236.89 20 236.228 20.5C235.565 21 234.901 21.5 234.571 22.1668C234.404 22.6668 234.238 23.3334 234.238 24.1668V35.6668H231.422V21.3334Z" fill="#CCCCCC"/>
</g>
<defs>
<clipPath id="clip0">
<rect width="241.176" height="50" fill="white"/>
</clipPath>
</defs>
</svg>
